<?xml version="1.0" encoding="UTF-8"?>
<svg version="1.1" xmlns="http://www.w3.org/2000/svg" width="224" height="191">
<path d="M0 0 C73.92 0 147.84 0 224 0 C224 63.03 224 126.06 224 191 C150.08 191 76.16 191 0 191 C0 127.97 0 64.94 0 0 Z " fill="#FDFDFD" transform="translate(0,0)"/>
<path d="M0 0 C3.16048015 0.45741381 4.82400354 1.44548394 7.06929016 3.66815186 C7.64839645 4.2344632 8.22750275 4.80077454 8.82415771 5.38424683 C9.44719788 6.00864655 10.07023804 6.63304626 10.7121582 7.27636719 C11.3775914 7.93172455 12.0430246 8.58708191 12.72862244 9.26229858 C14.92737852 11.43254012 17.11462657 13.6139448 19.30078125 15.796875 C20.82181273 17.30826991 22.34307128 18.81943634 23.86454773 20.3303833 C27.05154995 23.49941681 30.23228228 26.67459783 33.40942383 29.85351562 C37.48793241 33.93232955 41.58670691 37.99009696 45.69108295 42.04285812 C48.83849763 45.15697692 51.97224283 48.28457493 55.10225487 51.41617584 C56.60818097 52.91855382 58.1189923 54.41605107 59.63466835 55.90859222 C61.7491922 57.99383441 63.84398509 60.09709244 65.93481445 62.20605469 C66.56797577 62.82235748 67.20113708 63.43866028 67.85348511 64.07363892 C69.40862983 65.66341879 70.80634843 67.12369156 72 69 C71.8790741 71.92462158 71.8790741 71.92462158 71 74 C69.23294067 74.69845581 69.23294067 74.69845581 67 75 C65.16574097 73.76028442 65.16574097 73.76028442 63.27294922 71.82470703 C62.20196487 70.74831467 62.20196487 70.74831467 61.10934448 69.650177 C60.34880768 68.86069672 59.58827087 68.07121643 58.8046875 67.2578125 C57.62170578 66.06066116 57.62170578 66.06066116 56.41482544 64.83932495 C53.88955778 62.27936311 51.38192933 59.70291183 48.875 57.125 C46.3575952 54.55771711 43.83673469 51.99389843 41.31375122 49.43209839 C39.74273691 47.83457908 38.17563541 46.23320104 36.61276245 44.62771606 C35.90507721 43.90381683 35.19739197 43.1799176 34.46826172 42.43408203 C33.84523163 41.79375031 33.22220154 41.15341858 32.58029175 40.49368286 C31.05331356 38.90608016 31.05331356 38.90608016 29 38 C29 38.66 29 39.32 29 40 C28.01 40.495 28.01 40.495 27 41 C27.33 41.33 27.66 41.66 28 42 C29.32 42 30.64 42 32 42 C33.921875 43.53125 33.921875 43.53125 35.75 45.5 C36.36359375 46.1496875 36.9771875 46.799375 37.609375 47.46875 C38.06828125 47.9740625 38.5271875 48.479375 39 49 C36.50800535 51.77676402 33.7383247 53.47950602 30.52734375 55.35546875 C29.46322266 55.97744141 28.39910156 56.59941406 27.30273438 57.24023438 C26.19220703 57.88283203 25.08167969 58.52542969 23.9375 59.1875 C22.82310547 59.84169922 21.70871094 60.49589844 20.56054688 61.16992188 C12.25523006 66 12.25523006 66 10 66 C10.33 66.66 10.66 67.32 11 68 C11.69561035 67.59160889 12.3912207 67.18321777 13.10791016 66.76245117 C16.27911377 64.90214907 19.45203702 63.04479956 22.625 61.1875 C23.71941406 60.54490234 24.81382812 59.90230469 25.94140625 59.24023438 C27.00488281 58.61826172 28.06835938 57.99628906 29.1640625 57.35546875 C30.13811035 56.78465576 31.1121582 56.21384277 32.11572266 55.62573242 C35.03259238 53.9816292 37.9932255 52.47218855 41 51 C43.64 53.64 46.28 56.28 49 59 C45.46972966 61.64770276 42.17726542 63.42993196 38.1875 65.171875 C37.53676514 65.45855042 36.88603027 65.74522583 36.21557617 66.04058838 C34.84514885 66.64170129 33.47345624 67.2399369 32.10058594 67.83544922 C30.00161043 68.74929885 27.91107958 69.68083252 25.8203125 70.61328125 C24.48485495 71.1964129 23.14893243 71.77848108 21.8125 72.359375 C21.18947998 72.63948425 20.56645996 72.91959351 19.92456055 73.20819092 C17.28409858 74.33494134 15.45600264 75.06296655 12.57421875 74.66503906 C12.05472656 74.44557617 11.53523438 74.22611328 11 74 C11 74.33 11 74.66 11 75 C10.01 75.495 10.01 75.495 9 76 C9 76.66 9 77.32 9 78 C13.44182811 76.59037875 17.67161449 74.90481209 21.9375 73.03125 C22.90224243 72.60978699 22.90224243 72.60978699 23.88647461 72.17980957 C25.92540392 71.2889996 27.96287391 70.39492524 30 69.5 C32.6862046 68.31992956 35.37388403 67.14331447 38.0625 65.96875 C39.24972656 65.44732422 40.43695313 64.92589844 41.66015625 64.38867188 C44.74054987 63.10787663 47.82150768 62.00869962 51 61 C52.98 63.475 52.98 63.475 55 66 C50.96451635 67.83978993 46.92597859 69.6726502 42.88452148 71.49926758 C41.51127397 72.12108803 40.13886542 72.74476486 38.76733398 73.37036133 C36.79110043 74.2713862 34.81190505 75.1656014 32.83203125 76.05859375 C31.64327393 76.59798584 30.4545166 77.13737793 29.22973633 77.69311523 C26.43890203 78.8224021 23.96366826 79.54799783 21 80 C21.90507403 82.84451839 22.78840875 85.5768175 24.125 88.25 C25 90 25 90 25 92 C35.58907712 100.62013308 46.52812931 103.04535827 60 102 C69.50835444 99.72371816 77.16484474 94.00835883 82.75 86.0859375 C87.75066543 77.74107706 89.36948547 68.13757257 87.5390625 58.59765625 C84.3325797 47.86536969 76.99595537 39.10179526 67.375 33.4609375 C61.38857517 30.41427486 55.68675159 27.93303511 49 27 C48.896875 27.61875 48.79375 28.2375 48.6875 28.875 C48 31 48 31 45 33 C39.55555556 32.55555556 39.55555556 32.55555556 37 30 C36.44978166 23.94759825 36.44978166 23.94759825 38.125 21.0625 C40.88980433 19.49577755 42.88188517 19.61023565 46 20 C47.875 21.375 47.875 21.375 49 23 C49 23.66 49 24.32 49 25 C50.19625 25.020625 51.3925 25.04125 52.625 25.0625 C63.94176787 26.36348276 74.5887067 33.6639464 82 42 C89.52067594 52.06958287 92.05763309 60.4288928 91 73 C88.48211177 85.58944113 81.47448618 93.95317931 71 101 C61.89487076 106.25295918 50.48266078 106.55947503 40.37890625 104.12890625 C34.01106817 101.8412848 28.99143164 98.92769812 24 94.35546875 C21.51234121 92.66949687 19.94446461 92.7392922 17 93 C16.86697983 93.73384415 16.73395966 94.46768829 16.59690857 95.22377014 C16.05437768 97.74708868 15.35535562 100.00813441 14.44946289 102.41967773 C14.13566177 103.26082626 13.82186066 104.10197479 13.49855042 104.96861267 C13.16000534 105.86455643 12.82146027 106.76050018 12.47265625 107.68359375 C12.12367783 108.6167189 11.7746994 109.54984406 11.41514587 110.51124573 C10.30116845 113.48801651 9.18206306 116.462826 8.0625 119.4375 C6.94745422 122.40894892 5.83349038 125.38079858 4.7205658 128.3530426 C4.02862104 130.2000507 3.33529472 132.04654199 2.64039612 133.8924408 C1.0093847 138.23713182 -0.57250937 142.58286771 -2 147 C-4.06765747 147.8848114 -4.06765747 147.8848114 -7 148 C-9.6453709 146.31341282 -11.73096548 144.0772288 -13.91748047 141.84301758 C-14.93047966 140.84337982 -14.93047966 140.84337982 -15.96394348 139.82354736 C-18.19690623 137.61193203 -20.40727103 135.37915809 -22.6171875 133.14453125 C-24.15848413 131.60473607 -25.70074365 130.06590418 -27.243927 128.52799988 C-30.47635818 125.29990582 -33.69792696 122.06144752 -36.91210938 118.81518555 C-41.0398673 114.64763097 -45.19171565 110.50510041 -49.3517437 106.36978626 C-52.54020312 103.19548469 -55.71645315 100.00919315 -58.88901138 96.81900597 C-60.41574794 95.28640514 -61.94609675 93.75739428 -63.48003769 92.23200417 C-65.61875549 90.10124521 -67.74073827 87.95513618 -69.85888672 85.80395508 C-70.82029823 84.85536873 -70.82029823 84.85536873 -71.8011322 83.88761902 C-73.53439331 82.10725403 -73.53439331 82.10725403 -76 79 C-75.6829415 76.03005994 -75.15165342 75.15165342 -73 73 C-69.45600743 73.30628787 -67.74942859 74.89498274 -65.328125 77.37890625 C-64.33232422 78.38920898 -64.33232422 78.38920898 -63.31640625 79.41992188 C-62.63449219 80.12697266 -61.95257813 80.83402344 -61.25 81.5625 C-60.55261719 82.27341797 -59.85523437 82.98433594 -59.13671875 83.71679688 C-57.4175342 85.47130714 -55.70574128 87.23243352 -54 89 C-53.45126221 88.40380859 -52.90252441 87.80761719 -52.3371582 87.19335938 C-49.88129784 84.88860126 -47.57572499 83.48061055 -44.60546875 81.90625 C-43.56712891 81.35066406 -42.52878906 80.79507813 -41.45898438 80.22265625 C-40.37939453 79.65417969 -39.29980469 79.08570312 -38.1875 78.5 C-34.12323078 76.33664125 -30.06015654 74.1710684 -26 72 C-25.24468994 71.59813477 -24.48937988 71.19626953 -23.71118164 70.78222656 C-20.14905912 68.98752382 -20.14905912 68.98752382 -18.0625 65.75 C-18.041875 65.1725 -18.02125 64.595 -18 64 C-19.32 63.34 -20.64 62.68 -22 62 C-22 62.66 -22 63.32 -22 64 C-21.01 64.33 -20.02 64.66 -19 65 C-21.88109665 68.13438918 -24.66985874 70.11428626 -28.4296875 72.09375 C-29.99396484 72.92712891 -29.99396484 72.92712891 -31.58984375 73.77734375 C-32.67394531 74.34582031 -33.75804687 74.91429688 -34.875 75.5 C-42.91616982 79.62698057 -42.91616982 79.62698057 -50.5703125 84.40625 C-53 86 -53 86 -56 86 C-57.6875 84.5 -57.6875 84.5 -59 83 C-57.64412646 78.93237939 -55.0515406 78.13665748 -51.4375 76.3125 C-50.82197266 75.99216797 -50.20644531 75.67183594 -49.57226562 75.34179688 C-48.0526445 74.55253629 -46.52688189 73.77512085 -45 73 C-48.98886486 74.25163795 -52.65718567 75.7158521 -56.375 77.625 C-57.24898437 78.07101563 -58.12296875 78.51703125 -59.0234375 78.9765625 C-60.00183594 79.48316406 -60.00183594 79.48316406 -61 80 C-63.04119788 78.38405168 -65.04072937 76.7143618 -67 75 C-67 74.34 -67 73.68 -67 73 C-61.7889055 70.57167631 -56.57444011 68.15080491 -51.35668945 65.73681641 C-49.58165034 64.91432047 -47.80755468 64.08978531 -46.03442383 63.26318359 C-43.48763566 62.07634469 -40.93756006 60.89684744 -38.38671875 59.71875 C-37.59287277 59.34689575 -36.79902679 58.9750415 -35.98112488 58.59191895 C-35.24058365 58.25156616 -34.50004242 57.91121338 -33.73706055 57.56054688 C-33.08642136 57.2585437 -32.43578217 56.95654053 -31.76542664 56.64538574 C-30 56 -30 56 -27 56 C-27 55.34 -27 54.68 -27 54 C-26.34 54 -25.68 54 -25 54 C-24.34 55.65 -23.68 57.3 -23 59 C-23.66 59 -24.32 59 -25 59 C-25 59.66 -25 60.32 -25 61 C-24.0925 60.773125 -23.185 60.54625 -22.25 60.3125 C-19 60 -19 60 -16.625 61.3125 C-15 63 -15 63 -15 65 C-14.401875 65.28875 -13.80375 65.5775 -13.1875 65.875 C-11 67 -11 67 -8 69 C-8 69.66 -8 70.32 -8 71 C-6.515 71.495 -6.515 71.495 -5 72 C-5 72.66 -5 73.32 -5 74 C-5.99 74 -6.98 74 -8 74 C-8 75.32 -8 76.64 -8 78 C-4.87802522 76.6910428 -4.87802522 76.6910428 -3 74 C-2.34 74.33 -1.68 74.66 -1 75 C-1 75.66 -1 76.32 -1 77 C-0.01 76.67 0.98 76.34 2 76 C2 75.01 2 74.02 2 73 C2.99 73 3.98 73 5 73 C5 72.34 5 71.68 5 71 C4.071875 71.37125 3.14375 71.7425 2.1875 72.125 C1.135625 72.41375 0.08375 72.7025 -1 73 C-2.485 72.01 -2.485 72.01 -4 71 C-4 70.34 -4 69.68 -4 69 C-4.5775 68.896875 -5.155 68.79375 -5.75 68.6875 C-8.35661158 67.89103535 -9.9735311 66.80934723 -12 65 C-12 64.34 -12 63.68 -12 63 C-13.32 62.34 -14.64 61.68 -16 61 C-15.505 60.01 -15.505 60.01 -15 59 C-15.33 58.67 -15.66 58.34 -16 58 C-16 57.34 -16 56.68 -16 56 C-17.32 55.34 -18.64 54.68 -20 54 C-20 52.68 -20 51.36 -20 50 C-18.35 50.66 -16.7 51.32 -15 52 C-15 51.34 -15 50.68 -15 50 C-16.32 49.34 -17.64 48.68 -19 48 C-18.32475295 43.37953351 -16.56104546 39.33957786 -14.69140625 35.1015625 C-14.36462387 34.34837738 -14.03784149 33.59519226 -13.70115662 32.81918335 C-12.65956727 30.41907551 -11.61174872 28.02176836 -10.5625 25.625 C-9.51700508 23.23529733 -8.4730817 20.84497989 -7.43455505 18.45223999 C-6.78979738 16.96674256 -6.14114461 15.48292743 -5.4879303 14.00112915 C-4.06351238 10.71962237 -2.80051327 7.5034305 -1.84741211 4.05224609 C-1 1 -1 1 0 0 Z " fill="#D9D9D9" transform="translate(119,31)"/>
<path d="M0 0 C9.4502074 -0.46201014 17.78743037 4.09801343 24.90234375 10.05078125 C33.03681498 17.60962882 39.29484497 25.17200144 40.203125 36.54296875 C40.41011052 48.2204016 37.18951465 57.39262782 29.1484375 65.9765625 C20.80104239 73.79185274 11.87709227 76.32646035 0.63671875 76.2109375 C-8.24714819 75.69565413 -15.89604291 72.33122651 -23 67 C-24.78515625 64.80859375 -24.78515625 64.80859375 -26 63 C-25.34 63 -24.68 63 -24 63 C-24.66 62.278125 -25.32 61.55625 -26 60.8125 C-28 58 -28 58 -28 53 C-17.44 48.38 -6.88 43.76 4 39 C4 38.34 4 37.68 4 37 C2.31363048 35.73519183 2.31363048 35.73519183 0 35 C-2.63235234 35.76944754 -2.63235234 35.76944754 -5.4375 37.3125 C-7.13326172 38.14587891 -7.13326172 38.14587891 -8.86328125 38.99609375 C-9.50475098 39.31175293 -10.1462207 39.62741211 -10.80712891 39.95263672 C-15.1927389 42.04730014 -19.66185734 43.95273839 -24.125 45.875 C-25.04982178 46.28016846 -25.97464355 46.68533691 -26.92749023 47.1027832 C-27.79962158 47.47878662 -28.67175293 47.85479004 -29.5703125 48.2421875 C-30.35164551 48.5810498 -31.13297852 48.91991211 -31.93798828 49.26904297 C-34 50 -34 50 -37 50 C-37.33 50.66 -37.66 51.32 -38 52 C-38.66 51.67 -39.32 51.34 -40 51 C-40 49.68 -40 48.36 -40 47 C-40.33 46.34 -40.66 45.68 -41 45 C-40.1646875 45.5259375 -40.1646875 45.5259375 -39.3125 46.0625 C-35.4201016 47.64049935 -32.48025561 46.18896055 -28.6784668 44.69311523 C-27.43318851 44.15331183 -26.19019926 43.60820552 -24.94921875 43.05859375 C-24.29041214 42.77146011 -23.63160553 42.48432648 -22.95283508 42.18849182 C-20.86233508 41.27611147 -18.77491066 40.35692318 -16.6875 39.4375 C-15.26517199 38.81530233 -13.8426479 38.19355266 -12.41992188 37.57226562 C-8.94432338 36.05335398 -5.47146568 34.52833217 -2 33 C-2 32.34 -2 31.68 -2 31 C-3.55705194 29.42159428 -3.55705194 29.42159428 -5.5 27.875 C-6.1496875 27.33617188 -6.799375 26.79734375 -7.46875 26.2421875 C-7.9740625 25.83226563 -8.479375 25.42234375 -9 25 C-9.76666992 25.4439209 -10.53333984 25.8878418 -11.32324219 26.34521484 C-14.17784531 27.9973564 -17.03305274 29.64844379 -19.88867188 31.29882812 C-21.1226385 32.01227577 -22.35636534 32.72613831 -23.58984375 33.44042969 C-25.36655254 34.46920139 -27.14412859 35.49646013 -28.921875 36.5234375 C-30.52434082 37.450354 -30.52434082 37.450354 -32.15917969 38.39599609 C-34.41432111 39.66930987 -36.6691524 40.8739154 -39 42 C-39 41.01 -39 40.02 -39 39 C-38.3294458 38.62713867 -37.6588916 38.25427734 -36.96801758 37.87011719 C-33.91351 36.16815032 -30.86299157 34.45915364 -27.8125 32.75 C-26.75740234 32.16347656 -25.70230469 31.57695313 -24.61523438 30.97265625 C-23.59365234 30.39902344 -22.57207031 29.82539062 -21.51953125 29.234375 C-20.58214111 28.71069336 -19.64475098 28.18701172 -18.67895508 27.64746094 C-15.92600394 25.95449508 -13.47952851 24.0685678 -11 22 C-13.31 19.69 -15.62 17.38 -18 15 C-19.65 15.66 -21.3 16.32 -23 17 C-22.67 15.68 -22.34 14.36 -22 13 C-21.34 13 -20.68 13 -20 13 C-20 12.34 -20 11.68 -20 11 C-16.90235176 12.37396287 -14.8390651 13.93451981 -12.48828125 16.36401367 C-11.82078857 17.04779587 -11.1532959 17.73157806 -10.46557617 18.43608093 C-9.75506104 19.17260391 -9.0445459 19.90912689 -8.3125 20.66796875 C-6.79469972 22.21591544 -5.27645719 23.7634286 -3.7578125 25.31054688 C-1.36935638 27.75494393 1.01500378 30.20300463 3.39160156 32.65893555 C5.68757087 35.02715729 7.99869556 37.37968793 10.3125 39.73046875 C11.02301514 40.47306442 11.73353027 41.2156601 12.46557617 41.98075867 C13.46681519 42.99224724 13.46681519 42.99224724 14.48828125 44.02416992 C15.07134033 44.62436447 15.65439941 45.22455902 16.25512695 45.84294128 C17.96585999 47.2553505 17.96585999 47.2553505 20.21948242 46.68598938 C20.80705322 46.45961288 21.39462402 46.23323639 22 46 C21.48088073 42.04441167 20.59907013 40.1031429 17.76538086 37.3112793 C17.08475082 36.63095139 16.40412079 35.95062347 15.7028656 35.24967957 C14.96431839 34.5317775 14.22577118 33.81387543 13.46484375 33.07421875 C12.71159317 32.32662796 11.95834259 31.57903717 11.18226624 30.80879211 C8.77657387 28.42547263 6.35734196 26.05644341 3.9375 23.6875 C2.30312464 22.07318825 0.66964972 20.45796433 -0.96289062 18.84179688 C-4.96487599 14.8838911 -8.97806486 10.93762606 -13 7 C-11.6875 5.47265625 -11.6875 5.47265625 -10 4 C-7.99363529 4.29259485 -5.99285937 4.62633887 -4 5 C-0.75150023 3.27773504 -0.75150023 3.27773504 0 0 Z " fill="#F9F9F9" transform="translate(168,58)"/>
<path d="M0 0 C3.16983469 0.34145378 4.84126223 1.46256877 7.06929016 3.66815186 C7.64839645 4.2344632 8.22750275 4.80077454 8.82415771 5.38424683 C9.44719788 6.00864655 10.07023804 6.63304626 10.7121582 7.27636719 C11.3775914 7.93172455 12.0430246 8.58708191 12.72862244 9.26229858 C14.92737852 11.43254012 17.11462657 13.6139448 19.30078125 15.796875 C20.82181273 17.30826991 22.34307128 18.81943634 23.86454773 20.3303833 C27.05154995 23.49941681 30.23228228 26.67459783 33.40942383 29.85351562 C37.48793241 33.93232955 41.58670691 37.99009696 45.69108295 42.04285812 C48.83849763 45.15697692 51.97224283 48.28457493 55.10225487 51.41617584 C56.60818097 52.91855382 58.1189923 54.41605107 59.63466835 55.90859222 C61.7491922 57.99383441 63.84398509 60.09709244 65.93481445 62.20605469 C66.56797577 62.82235748 67.20113708 63.43866028 67.85348511 64.07363892 C69.40862983 65.66341879 70.80634843 67.12369156 72 69 C71.8790741 71.92462158 71.8790741 71.92462158 71 74 C68.93234253 74.8848114 68.93234253 74.8848114 66 75 C63.3546291 73.31341282 61.26903452 71.0772288 59.08251953 68.84301758 C58.06952034 67.84337982 58.06952034 67.84337982 57.03605652 66.82354736 C54.80309377 64.61193203 52.59272897 62.37915809 50.3828125 60.14453125 C48.84151587 58.60473607 47.29925635 57.06590418 45.756073 55.52799988 C42.52364182 52.29990582 39.30207304 49.06144752 36.08789062 45.81518555 C31.9601327 41.64763097 27.80828435 37.50510041 23.6482563 33.36978626 C20.45979688 30.19548469 17.28354685 27.00919315 14.11098862 23.81900597 C12.58425206 22.28640514 11.05390325 20.75739428 9.51996231 19.23200417 C7.38124451 17.10124521 5.25926173 14.95513618 3.14111328 12.80395508 C2.50017227 12.17156418 1.85923126 11.53917328 1.1988678 10.88761902 C-0.53439331 9.10725403 -0.53439331 9.10725403 -3 6 C-2.6829415 3.03005994 -2.15165342 2.15165342 0 0 Z " fill="#0D0D0D" transform="translate(46,104)"/>
<path d="M0 0 C3.16048015 0.45741381 4.82400354 1.44548394 7.06929016 3.66815186 C7.64839645 4.2344632 8.22750275 4.80077454 8.82415771 5.38424683 C9.44719788 6.00864655 10.07023804 6.63304626 10.7121582 7.27636719 C11.3775914 7.93172455 12.0430246 8.58708191 12.72862244 9.26229858 C14.92737852 11.43254012 17.11462657 13.6139448 19.30078125 15.796875 C20.82181273 17.30826991 22.34307128 18.81943634 23.86454773 20.3303833 C27.05154995 23.49941681 30.23228228 26.67459783 33.40942383 29.85351562 C37.48793241 33.93232955 41.58670691 37.99009696 45.69108295 42.04285812 C48.83849763 45.15697692 51.97224283 48.28457493 55.10225487 51.41617584 C56.60818097 52.91855382 58.1189923 54.41605107 59.63466835 55.90859222 C61.7491922 57.99383441 63.84398509 60.09709244 65.93481445 62.20605469 C66.56797577 62.82235748 67.20113708 63.43866028 67.85348511 64.07363892 C69.40862983 65.66341879 70.80634843 67.12369156 72 69 C71.8790741 71.92462158 71.8790741 71.92462158 71 74 C69.19420338 74.65410042 69.19420338 74.65410042 67 75 C64.52392163 73.03523132 62.40467203 71.09737511 60.19604492 68.85888672 C59.52085815 68.19406784 58.84567139 67.52924896 58.15002441 66.84428406 C55.91392057 64.63536206 53.69679649 62.40843923 51.48046875 60.1796875 C49.93745333 58.6425762 48.39376878 57.10613633 46.84944153 55.57034302 C43.61237424 52.34517647 40.38481059 49.11085025 37.16333008 45.87011719 C33.0276733 41.71157832 28.86770803 37.57837261 24.70006847 33.45191765 C21.50590149 30.28328811 18.32589076 27.10074873 15.14992714 23.91388321 C13.62140955 22.38387516 12.08826907 20.85847146 10.55052757 19.33773422 C8.40462954 17.21172818 6.27871201 15.06756968 4.15698242 12.91748047 C3.19321434 11.97428703 3.19321434 11.97428703 2.2099762 11.01203918 C0.63583534 9.39542011 -0.78158031 7.89886858 -2 6 C-1.9509299 3.32724961 -1.91155867 1.91155867 0 0 Z " fill="#040403" transform="translate(119,31)"/>
<path d="M0 0 C4.58664344 3.83560633 8.94654556 7.80638556 13.15234375 12.0546875 C13.69734024 12.60109894 14.24233673 13.14751038 14.80384827 13.71047974 C16.51746118 15.42962058 18.22753444 17.15223204 19.9375 18.875 C21.10979204 20.05231638 22.28231614 21.22940174 23.45507812 22.40625 C26.30606982 25.26817489 29.15389615 28.13321457 32 31 C31.34 31.99 30.68 32.98 30 34 C29.51789063 33.43410156 29.03578125 32.86820313 28.5390625 32.28515625 C27.90742188 31.55167969 27.27578125 30.81820312 26.625 30.0625 C25.99851563 29.33160156 25.37203125 28.60070312 24.7265625 27.84765625 C23.12252286 25.91619094 23.12252286 25.91619094 21 25 C21 25.66 21 26.32 21 27 C20.01 26.67 19.02 26.34 18 26 C18.33 24.68 18.66 23.36 19 22 C16.69 20.02 14.38 18.04 12 16 C6.95794075 27.31516674 1.95061905 38.64451755 -3 50 C-3.66 49.34 -4.32 48.68 -5 48 C-4.57066162 47.0212793 -4.14132324 46.04255859 -3.69897461 45.03417969 C-2.10893171 41.40129665 -0.53403241 37.76201351 1.03637695 34.12060547 C1.71813312 32.54557517 2.4039821 30.97230988 3.09399414 29.40087891 C4.08520892 27.14156573 5.0615236 24.87631057 6.03515625 22.609375 C6.34655045 21.90818542 6.65794464 21.20699585 6.97877502 20.48455811 C8.12124143 17.79355819 9.03255091 15.60153582 8.87280273 12.64941406 C7.97772156 10.64137567 7.97772156 10.64137567 5 9 C4.8963916 9.68247803 4.7927832 10.36495605 4.68603516 11.06811523 C3.8698039 14.55641456 2.50515479 17.66758168 1.0234375 20.91015625 C0.42932147 22.2426754 -0.16441734 23.5753628 -0.7578125 24.90820312 C-1.69261752 26.99279862 -2.63096147 29.07561799 -3.57617188 31.15551758 C-4.490689 33.17349183 -5.39074148 35.19743104 -6.2890625 37.22265625 C-6.57544586 37.84253922 -6.86182922 38.46242218 -7.15689087 39.10108948 C-8.27513154 41.64177906 -9.04848186 43.51828139 -8.76708984 46.31420898 C-7.84543166 48.33968631 -6.66973071 49.54806025 -5 51 C-5.66 51 -6.32 51 -7 51 C-5.2422407 54.12112035 -5.2422407 54.12112035 -2.375 55.5 C-1.59125 55.995 -0.8075 56.49 0 57 C0 57.99 0 58.98 0 60 C-0.99 60 -1.98 60 -3 60 C-1.68 60.66 -0.36 61.32 1 62 C1 62.66 1 63.32 1 64 C1.99 64 2.98 64 4 64 C3.67 64.99 3.34 65.98 3 67 C1.35 66.34 -0.3 65.68 -2 65 C-2 64.34 -2 63.68 -2 63 C-2.5775 62.896875 -3.155 62.79375 -3.75 62.6875 C-6.35661158 61.89103535 -7.9735311 60.80934723 -10 59 C-10 58.34 -10 57.68 -10 57 C-11.32 56.34 -12.64 55.68 -14 55 C-13.67 54.34 -13.34 53.68 -13 53 C-13.33 52.67 -13.66 52.34 -14 52 C-14 51.34 -14 50.68 -14 50 C-15.32 49.34 -16.64 48.68 -18 48 C-18 46.68 -18 45.36 -18 44 C-16.35 44.66 -14.7 45.32 -13 46 C-13 45.34 -13 44.68 -13 44 C-14.32 43.34 -15.64 42.68 -17 42 C-16.31433346 37.10664066 -14.37516976 32.90076851 -12.40234375 28.41796875 C-12.04862198 27.60378983 -11.69490021 26.7896109 -11.33045959 25.95075989 C-10.20406863 23.36097611 -9.07089072 20.77422695 -7.9375 18.1875 C-7.17077377 16.42793047 -6.40449264 14.66816693 -5.63867188 12.90820312 C-3.76426435 8.60320364 -1.88376599 4.30091219 0 0 Z " fill="#DADADA" transform="translate(117,37)"/>
<path d="M0 0 C21.96763393 11.90290179 21.96763393 11.90290179 24.84765625 20.54296875 C21.61535838 19.11759018 19.44533035 17.36068928 16.91015625 14.91796875 C6.27937163 5.30297574 -5.21151369 -1.04404996 -19.65234375 -0.83203125 C-20.44253906 -0.84363281 -21.23273437 -0.85523438 -22.046875 -0.8671875 C-32.70023217 -0.81487969 -41.23313095 3.22994039 -49.09765625 10.2890625 C-55.89130113 17.3620997 -59.37788397 25.76160236 -59.77734375 35.54296875 C-59.18798348 49.64108686 -51.17483928 61.00411488 -41.21484375 70.48046875 C-39.21510186 72.20726537 -37.20955356 73.88828202 -35.15234375 75.54296875 C-34.49459961 76.07728516 -33.83685547 76.61160156 -33.15917969 77.16210938 C-30.99622106 78.88971211 -28.80110506 80.56525808 -26.58984375 82.23046875 C-25.90607666 82.77243896 -25.22230957 83.31440918 -24.51782227 83.87280273 C-20.41541044 86.85332057 -17.91932952 87.8697114 -12.8125 87.25 C-11.58672241 87.00407104 -11.58672241 87.00407104 -10.33618164 86.75317383 C-8.15234375 86.54296875 -8.15234375 86.54296875 -5.15234375 88.54296875 C-4.7890625 90.41796875 -4.7890625 90.41796875 -4.83984375 92.54296875 C-4.84371094 93.24421875 -4.84757812 93.94546875 -4.8515625 94.66796875 C-5.15234375 96.54296875 -5.15234375 96.54296875 -7.15234375 98.54296875 C-13.27368266 99.09945411 -13.27368266 99.09945411 -16.02734375 97.35546875 C-17.15234375 95.54296875 -17.15234375 95.54296875 -17.38671875 93.1640625 C-18.46377843 89.47678167 -20.27602362 88.74877572 -23.52734375 86.79296875 C-29.83301359 82.8218981 -35.47224773 78.35119593 -41.15234375 73.54296875 C-42.63927734 72.35767578 -42.63927734 72.35767578 -44.15625 71.1484375 C-53.61097281 62.92640345 -61.05341597 51.79766445 -62.55078125 39.1875 C-62.94130046 26.37546578 -59.01696229 16.8633296 -50.26953125 7.53515625 C-36.88348906 -4.9837739 -16.61826709 -7.65512432 0 0 Z " fill="#1D1D1D" transform="translate(72.15234375,62.45703125)"/>
<path d="M0 0 C2.4375 0.8125 2.4375 0.8125 5 2 C6.35446714 6.06340142 4.90500656 8.57859376 3.39453125 12.37890625 C3.11405441 13.1056102 2.83357758 13.83231415 2.54460144 14.58103943 C1.64261956 16.91168823 0.72772192 19.23702289 -0.1875 21.5625 C-0.78534962 23.10188587 -1.38236417 24.64159632 -1.97851562 26.18164062 C-4.93660756 33.80716962 -7.9386031 41.41530979 -11 49 C-18.09821429 42.97321429 -18.09821429 42.97321429 -21 40 C-19.75643887 35.96211423 -18.2772693 32.42934678 -16.171875 28.76953125 C-15.34236328 27.31643555 -15.34236328 27.31643555 -14.49609375 25.83398438 C-13.91988281 24.83689453 -13.34367187 23.83980469 -12.75 22.8125 C-11.61895578 20.8403229 -10.48874463 18.86766779 -9.359375 16.89453125 C-8.80572266 15.92854004 -8.25207031 14.96254883 -7.68164062 13.96728516 C-5.06146763 9.34394273 -2.52509871 4.67579019 0 0 Z " fill="#060606" transform="translate(130,122)"/>
<path d="M0 0 C1.875 1.375 1.875 1.375 3 3 C3 3.66 3 4.32 3 5 C4.19625 5.020625 5.3925 5.04125 6.625 5.0625 C17.94176787 6.36348276 28.5887067 13.6639464 36 22 C43.52067594 32.06958287 46.05763309 40.4288928 45 53 C42.48211177 65.58944113 35.47448618 73.95317931 25 81 C15.89487076 86.25295918 4.48266078 86.55947503 -5.62109375 84.12890625 C-12.44764823 81.67649268 -21.56639051 77.86721897 -25 71 C-21.62919406 71.62394151 -19.46356088 72.89280378 -16.6875 74.875 C-6.97527096 81.5252455 2.3037804 82.90757551 14 82 C23.50835444 79.72371816 31.16484474 74.00835883 36.75 66.0859375 C41.75066543 57.74107706 43.36948547 48.13757257 41.5390625 38.59765625 C38.3325797 27.86536969 30.99595537 19.10179526 21.375 13.4609375 C15.38857517 10.41427486 9.68675159 7.93303511 3 7 C2.896875 7.61875 2.79375 8.2375 2.6875 8.875 C2 11 2 11 -1 13 C-6.44444444 12.55555556 -6.44444444 12.55555556 -9 10 C-9.55021834 3.94759825 -9.55021834 3.94759825 -7.875 1.0625 C-5.11019567 -0.50422245 -3.11811483 -0.38976435 0 0 Z " fill="#222222" transform="translate(165,51)"/>
<path d="M0 0 C1.98 1.32 3.96 2.64 6 4 C-0.1746897 17.08059266 -7.49339114 29.64376067 -15 42 C-18.81684226 40.44499019 -21.19195732 37.96404505 -24 35 C-22.35171843 29.76305474 -19.09761364 25.73316235 -15.875 21.375 C-15.29331055 20.579729 -14.71162109 19.78445801 -14.11230469 18.96508789 C-12.94968141 17.37607269 -11.78500647 15.78855633 -10.61816406 14.20263672 C-9.20373488 12.27732288 -7.79781249 10.34642292 -6.3984375 8.41015625 C-1.15462085 1.15462085 -1.15462085 1.15462085 0 0 Z " fill="#060606" transform="translate(117,111)"/>
<path d="M0 0 C1.12894876 0.93274109 2.25300876 1.87140122 3.375 2.8125 C4.00148437 3.33457031 4.62796875 3.85664062 5.2734375 4.39453125 C7 6 7 6 9 9 C-3.39358859 14.12498295 -16.21418194 17.99014028 -29 22 C-30.65 20.35 -32.3 18.7 -34 17 C-33 14 -33 14 -30.61083984 12.69726562 C-29.57137207 12.27123047 -28.5319043 11.84519531 -27.4609375 11.40625 C-26.32269531 10.93316406 -25.18445313 10.46007812 -24.01171875 9.97265625 C-22.81160156 9.48667969 -21.61148438 9.00070313 -20.375 8.5 C-19.19808594 8.01402344 -18.02117187 7.52804688 -16.80859375 7.02734375 C-14.54041166 6.09098511 -12.27061787 5.15851845 -9.99902344 4.23046875 C-6.64955985 2.85621798 -3.32101358 1.44137833 0 0 Z " fill="#080707" transform="translate(175,98)"/>
<path d="M0 0 C3.06952751 1.371385 5.19367129 2.93745062 7.57519531 5.30053711 C8.25559875 5.97140854 8.9360022 6.64227997 9.63702393 7.33348083 C10.72161896 8.41944298 10.72161896 8.41944298 11.828125 9.52734375 C12.57713074 10.27206436 13.32613647 11.01678497 14.09783936 11.78407288 C15.6771493 13.35764576 17.25385288 14.93383823 18.828125 16.51245117 C21.24612845 18.93362338 23.67716725 21.34115414 26.109375 23.74804688 C27.64143512 25.27783494 29.17271247 26.80840742 30.703125 28.33984375 C31.43428528 29.06179428 32.16544556 29.78374481 32.91876221 30.52757263 C33.58655701 31.20159622 34.25435181 31.87561981 34.94238281 32.57006836 C35.8302951 33.45703651 35.8302951 33.45703651 36.73614502 34.36192322 C38 36 38 36 38 39 C36.68 38.67 35.36 38.34 34 38 C34 37.34 34 36.68 34 36 C32.44294806 34.42159428 32.44294806 34.42159428 30.5 32.875 C29.8503125 32.33617187 29.200625 31.79734375 28.53125 31.2421875 C28.0259375 30.83226563 27.520625 30.42234375 27 30 C26.10692139 30.38857178 25.21384277 30.77714355 24.29370117 31.17749023 C20.97882867 32.6193667 17.663231 34.05956897 14.34741211 35.49926758 C12.91264338 36.12250893 11.47807149 36.7462036 10.04370117 37.37036133 C7.98147383 38.26763366 5.91854322 39.16327121 3.85546875 40.05859375 C3.21473923 40.3377916 2.5740097 40.61698944 1.91386414 40.90464783 C-0.70487997 42.03953577 -3.29042233 43.09680744 -6 44 C-6.66 44.66 -7.32 45.32 -8 46 C-8 44.68 -8 43.36 -8 42 C2.56 37.38 13.12 32.76 24 28 C24 27.34 24 26.68 24 26 C22.31363048 24.73519183 22.31363048 24.73519183 20 24 C17.36764766 24.76944754 17.36764766 24.76944754 14.5625 26.3125 C13.43199219 26.86808594 12.30148438 27.42367187 11.13671875 27.99609375 C10.49524902 28.31175293 9.8537793 28.62741211 9.19287109 28.95263672 C4.8072611 31.04730014 0.33814266 32.95273839 -4.125 34.875 C-5.04982178 35.28016846 -5.97464355 35.68533691 -6.92749023 36.1027832 C-7.79962158 36.47878662 -8.67175293 36.85479004 -9.5703125 37.2421875 C-10.35164551 37.5810498 -11.13297852 37.91991211 -11.93798828 38.26904297 C-14 39 -14 39 -17 39 C-17.33 39.66 -17.66 40.32 -18 41 C-18.66 40.67 -19.32 40.34 -20 40 C-20 38.68 -20 37.36 -20 36 C-20.33 35.34 -20.66 34.68 -21 34 C-20.1646875 34.5259375 -20.1646875 34.5259375 -19.3125 35.0625 C-15.4201016 36.64049935 -12.48025561 35.18896055 -8.6784668 33.69311523 C-7.43318851 33.15331183 -6.19019926 32.60820552 -4.94921875 32.05859375 C-4.29041214 31.77146011 -3.63160553 31.48432648 -2.95283508 31.18849182 C-0.86233508 30.27611147 1.22508934 29.35692318 3.3125 28.4375 C4.73482801 27.81530233 6.1573521 27.19355266 7.58007812 26.57226562 C11.05567662 25.05335398 14.52853432 23.52833217 18 22 C18 21.34 18 20.68 18 20 C16.44294806 18.42159428 16.44294806 18.42159428 14.5 16.875 C13.8503125 16.33617188 13.200625 15.79734375 12.53125 15.2421875 C12.0259375 14.83226563 11.520625 14.42234375 11 14 C10.23333008 14.4439209 9.46666016 14.8878418 8.67675781 15.34521484 C5.82215469 16.9973564 2.96694726 18.64844379 0.11132812 20.29882812 C-1.1226385 21.01227577 -2.35636534 21.72613831 -3.58984375 22.44042969 C-5.36655254 23.46920139 -7.14412859 24.49646013 -8.921875 25.5234375 C-9.99018555 26.14138184 -11.05849609 26.75932617 -12.15917969 27.39599609 C-14.41432111 28.66930987 -16.6691524 29.8739154 -19 31 C-19 30.01 -19 29.02 -19 28 C-18.3294458 27.62713867 -17.6588916 27.25427734 -16.96801758 26.87011719 C-13.91351 25.16815032 -10.86299157 23.45915364 -7.8125 21.75 C-6.75740234 21.16347656 -5.70230469 20.57695313 -4.61523438 19.97265625 C-3.59365234 19.39902344 -2.57207031 18.82539062 -1.51953125 18.234375 C-0.58214111 17.71069336 0.35524902 17.18701172 1.32104492 16.64746094 C4.07399606 14.95449508 6.52047149 13.0685678 9 11 C6.69 8.69 4.38 6.38 2 4 C0.35 4.66 -1.3 5.32 -3 6 C-2.67 4.68 -2.34 3.36 -2 2 C-1.34 2 -0.68 2 0 2 C0 1.34 0 0.68 0 0 Z " fill="#DCDCDC" transform="translate(148,69)"/>
<path d="M0 0 C1.15224028 0.92961422 2.29659176 1.8690125 3.4375 2.8125 C4.07558594 3.33457031 4.71367187 3.85664062 5.37109375 4.39453125 C7 6 7 6 8 9 C6.78417969 11.73974609 6.78417969 11.73974609 4.921875 15.0234375 C4.4310141 15.8982225 4.4310141 15.8982225 3.93023682 16.79067993 C2.87958462 18.65762918 1.81498832 20.51619871 0.75 22.375 C0.04726263 23.61927565 -0.65457105 24.86406214 -1.35546875 26.109375 C-4.17716712 31.10930701 -7.02843357 36.08723788 -10 41 C-12 40 -14 39 -16 38 C-15.3372115 33.72847199 -13.85664849 29.98589798 -12.12890625 26.0546875 C-11.84651596 25.40299591 -11.56412567 24.75130432 -11.2731781 24.0798645 C-10.67787341 22.70895996 -10.08017654 21.33909199 -9.48022461 19.97021484 C-8.56348057 17.87723869 -7.655206 15.78073942 -6.74804688 13.68359375 C-2.28480817 3.42721225 -2.28480817 3.42721225 0 0 Z " fill="#0A0A0A" transform="translate(129,52)"/>
<path d="M0 0 C1.3125 2.0625 1.3125 2.0625 2 4 C-2.47339859 7.0252061 -6.95742162 10.03367336 -11.45214844 13.02709961 C-12.97993232 14.04794883 -14.50470194 15.0733241 -16.02636719 16.10327148 C-18.21294792 17.58213557 -20.40981794 19.04443541 -22.609375 20.50390625 C-23.2886908 20.9684169 -23.96800659 21.43292755 -24.66790771 21.91151428 C-29.48217124 25.07293316 -29.48217124 25.07293316 -32.11920166 24.70152283 C-35.43774509 23.46373251 -36.88704596 20.75857889 -39 18 C-35.39664317 15.95690167 -31.79216257 13.91579358 -28.1875 11.875 C-27.18267578 11.30523437 -26.17785156 10.73546875 -25.14257812 10.1484375 C-23.11276807 8.99973471 -21.08002578 7.85619842 -19.04443359 6.71777344 C-17.00341729 5.56616231 -14.97500163 4.39194733 -12.95947266 3.19628906 C-11.99960449 2.6390918 -11.03973633 2.08189453 -10.05078125 1.5078125 C-9.19782471 1.00137207 -8.34486816 0.49493164 -7.46606445 -0.02685547 C-4.44985846 -1.21709377 -3.00930062 -1.1815776 0 0 Z " fill="#080808" transform="translate(105,100)"/>
<path d="M0 0 C1.12894876 0.93274109 2.25300876 1.87140122 3.375 2.8125 C4.00148437 3.33457031 4.62796875 3.85664062 5.2734375 4.39453125 C7 6 7 6 9 9 C4.23768091 11.16935727 -0.53114297 13.32343185 -5.30664062 15.46362305 C-6.93026533 16.19383236 -8.55203317 16.92818508 -10.171875 17.66674805 C-12.50044748 18.72758974 -14.83528906 19.77335597 -17.171875 20.81640625 C-18.25647003 21.31630821 -18.25647003 21.31630821 -19.36297607 21.8263092 C-25.22821702 24.41571559 -25.22821702 24.41571559 -29 23 C-30.75 20.9375 -30.75 20.9375 -32 19 C-21.48064483 12.408878 -10.7649738 6.17973412 0 0 Z " fill="#080808" transform="translate(159,82)"/>
<path d="M0 0 C3.61322401 1.806612 4.83748791 2.66418971 7.25 5.625 C8.03117187 6.57246094 8.03117187 6.57246094 8.828125 7.5390625 C9.40820312 8.26222656 9.40820312 8.26222656 10 9 C-0.62593118 15.40339958 -11.2976052 21.72527894 -22 28 C-22.99 27.01 -23.98 26.02 -25 25 C-16.75 16.75 -8.5 8.5 0 0 Z " fill="#0A0A0A" transform="translate(148,72)"/>
<path d="M0 0 C0.66 1.65 1.32 3.3 2 5 C-1.69747689 7.06524353 -5.3962552 9.12813194 -9.09619141 11.18896484 C-10.35142351 11.8885338 -11.60631451 12.58871519 -12.86083984 13.28955078 C-19.50641147 17.00153939 -26.14900426 20.67726707 -33 24 C-35.04119788 22.38405168 -37.04072937 20.7143618 -39 19 C-39 18.34 -39 17.68 -39 17 C-33.76947117 14.57411549 -28.53669836 12.15316595 -23.30175781 9.73681641 C-21.52020283 8.91363531 -19.73927522 8.08909508 -17.95898438 7.26318359 C-15.40397158 6.07814704 -12.84676266 4.89797293 -10.2890625 3.71875 C-9.49005524 3.34689575 -8.69104797 2.9750415 -7.86782837 2.59191895 C-2.22774341 0 -2.22774341 0 0 0 Z " fill="#0C0C0C" transform="translate(91,87)"/>
<path d="M0 0 C1.9375 0.8125 1.9375 0.8125 4 2 C5 5 5 5 3.72412109 7.85986328 C3.08039551 9.00181152 2.43666992 10.14375977 1.7734375 11.3203125 C1.4287442 11.9384079 1.0840509 12.5565033 0.72891235 13.19332886 C-0.37962591 15.1760191 -1.50199475 17.1504747 -2.625 19.125 C-3.35900503 20.43176854 -4.09208841 21.73905522 -4.82421875 23.046875 C-6.23468993 25.5632052 -7.65028814 28.07651547 -9.07128906 30.58691406 C-11.40268929 34.71260712 -13.70718767 38.8527689 -16 43 C-18 43 -18 43 -19.75 41.375 C-21 39 -21 39 -20.25488281 36.18066406 C-19.07715152 33.19555057 -17.76157606 30.51815951 -16.171875 27.734375 C-15.61886719 26.76113281 -15.06585938 25.78789062 -14.49609375 24.78515625 C-13.91988281 23.78355469 -13.34367187 22.78195313 -12.75 21.75 C-12.18925781 20.76386719 -11.62851563 19.77773437 -11.05078125 18.76171875 C-7.45309065 12.45537425 -3.76249008 6.2093047 0 0 Z " fill="#0B0B0B" transform="translate(124,117)"/>
<path d="M0 0 C-1.63778045 4.19625909 -4.73323182 6.98676785 -7.8828125 10.078125 C-8.45707977 10.64956238 -9.03134705 11.22099976 -9.62301636 11.80975342 C-11.4523581 13.62792945 -13.28854193 15.43901492 -15.125 17.25 C-16.36894774 18.48391329 -17.6124427 19.71828322 -18.85546875 20.953125 C-21.89842367 23.97406743 -24.94753254 26.98867092 -28 30 C-29.17539996 29.07347299 -30.34010577 28.13336613 -31.5 27.1875 C-32.1496875 26.66542969 -32.799375 26.14335937 -33.46875 25.60546875 C-35 24 -35 24 -35 21 C-32.82339163 19.22544153 -30.68783817 17.66619488 -28.359375 16.11328125 C-27.34148895 15.4204731 -27.34148895 15.4204731 -26.30303955 14.71366882 C-24.8637885 13.73792202 -23.4210263 12.76733754 -21.97509766 11.80151367 C-19.76358678 10.32159214 -17.56691846 8.82142727 -15.37109375 7.31835938 C-13.9721989 6.37374781 -12.57248509 5.43034769 -11.171875 4.48828125 C-10.51443298 4.03834305 -9.85699097 3.58840485 -9.17962646 3.12483215 C-5.74851941 0.85295891 -4.22811007 0 0 0 Z " fill="#050505" transform="translate(111,105)"/>
<path d="M0 0 C0.99 0.33 1.98 0.66 3 1 C1.35170523 6.23698719 -1.90244383 10.26675523 -5.125 14.625 C-5.70596436 15.4195459 -6.28692871 16.2140918 -6.88549805 17.03271484 C-8.0473195 18.62104813 -9.21126206 20.20783233 -10.37744141 21.79296875 C-12.53512164 24.72788138 -14.67384948 27.67619641 -16.8125 30.625 C-17.87467297 32.08357154 -18.93702055 33.5420161 -20 35 C-22.93446886 33.58208437 -25.43332409 32.01667393 -28 30 C-26.36221955 25.80374091 -23.26676818 23.01323215 -20.1171875 19.921875 C-19.54292023 19.35043762 -18.96865295 18.77900024 -18.37698364 18.19024658 C-16.5476419 16.37207055 -14.71145807 14.56098508 -12.875 12.75 C-11.63105226 11.51608671 -10.3875573 10.28171678 -9.14453125 9.046875 C-6.10157633 6.02593257 -3.05246746 3.01132908 0 0 Z " fill="#0A0A0A" transform="translate(112,108)"/>
<path d="M0 0 C3.73428581 1.44552999 3.73428581 1.44552999 4.79394531 3.65673828 C5.10335154 7.17531766 3.78198578 9.53202785 2.359375 12.7421875 C2.07652649 13.38817902 1.79367798 14.03417053 1.5022583 14.69973755 C0.59552229 16.76306778 -0.32711547 18.81884985 -1.25 20.875 C-1.8564891 22.25085275 -2.46196906 23.62715082 -3.06640625 25.00390625 C-5.59257268 30.73211078 -8.1633469 36.41713474 -11 42 C-12.65 41.01 -14.3 40.02 -16 39 C-15.31886538 34.48311689 -13.66684146 30.49531929 -11.875 26.328125 C-11.56804199 25.60510193 -11.26108398 24.88207886 -10.94482422 24.137146 C-10.29815402 22.61667379 -9.64918284 21.0971784 -8.99804688 19.57861328 C-7.99834704 17.24614335 -7.00643739 14.91047588 -6.015625 12.57421875 C-5.38587054 11.0961607 -4.7556776 9.61828938 -4.125 8.140625 C-3.82706543 7.43963684 -3.52913086 6.73864868 -3.22216797 6.01641846 C-1.11602751 1.11602751 -1.11602751 1.11602751 0 0 Z " fill="#0D0D0D" transform="translate(116,40)"/>
<path d="M0 0 C3.81684226 1.55500981 6.19195732 4.03595495 9 7 C7.41588094 10.8826895 4.77134362 13.51864365 1.84375 16.421875 C1.34081421 16.92672424 0.83787842 17.43157349 0.31970215 17.95172119 C-0.74029986 19.01307997 -1.80281488 20.07193419 -2.86767578 21.12841797 C-4.50140046 22.75139124 -6.12413294 24.38481068 -7.74609375 26.01953125 C-8.77800476 27.05012146 -9.81053559 28.08009152 -10.84375 29.109375 C-11.33025024 29.59992371 -11.81675049 30.09047241 -12.31799316 30.59588623 C-15.77005651 34 -15.77005651 34 -18 34 C-17.30472318 30.17510914 -15.57905632 27.18254714 -13.69140625 23.80859375 C-13.36462387 23.22207535 -13.03784149 22.63555695 -12.70115662 22.03126526 C-12.01152363 20.79542477 -11.3196676 19.56082249 -10.62573242 18.32739258 C-9.5654985 16.44282982 -8.51164899 14.55481497 -7.45898438 12.66601562 C-2.35136962 3.52705442 -2.35136962 3.52705442 0 0 Z " fill="#060606" transform="translate(138,62)"/>
<path d="M0 0 C2.2203102 0.91717435 3.40529211 2.01402294 4.97045898 3.81396484 C-2.25884225 8.19641711 -9.55378262 12.45119599 -16.90454102 16.62646484 C-17.92290039 17.21105469 -18.94125977 17.79564453 -19.99047852 18.39794922 C-20.97016602 18.95417969 -21.94985352 19.51041016 -22.95922852 20.08349609 C-23.83820801 20.58469971 -24.7171875 21.08590332 -25.62280273 21.60229492 C-27.8122592 22.70457453 -29.60338146 23.48979397 -32.02954102 23.81396484 C-33.77954102 22.37646484 -33.77954102 22.37646484 -35.02954102 20.81396484 C-33.74199766 16.95133477 -32.5103691 16.71048604 -28.96313477 14.85302734 C-27.91963867 14.29873047 -26.87614258 13.74443359 -25.80102539 13.17333984 C-24.70081055 12.60099609 -23.6005957 12.02865234 -22.46704102 11.43896484 C-20.31860682 10.30861748 -18.17144466 9.17584868 -16.02563477 8.04052734 C-14.99680176 7.49944336 -13.96796875 6.95835938 -12.90795898 6.40087891 C-9.71215493 4.63898524 -6.70392707 2.69338816 -3.73291016 0.57714844 C-2.02954102 -0.18603516 -2.02954102 -0.18603516 0 0 Z " fill="#0C0C0C" transform="translate(95.029541015625,93.18603515625)"/>
<path d="M0 0 C0.66 0 1.32 0 2 0 C2.66 1.65 3.32 3.3 4 5 C3.34 5 2.68 5 2 5 C2 5.66 2 6.32 2 7 C2.9075 6.773125 3.815 6.54625 4.75 6.3125 C8 6 8 6 10.375 7.3125 C12 9 12 9 12 11 C12.598125 11.28875 13.19625 11.5775 13.8125 11.875 C16 13 16 13 19 15 C19 15.66 19 16.32 19 17 C19.99 17.33 20.98 17.66 22 18 C22 18.66 22 19.32 22 20 C20.68 20 19.36 20 18 20 C10.05543423 23.27765652 2.98823354 28.95797946 -4.0625 33.8125 C-5.22566501 34.60908393 -6.38907489 35.40531045 -7.55273438 36.20117188 C-10.37090838 38.13062711 -13.18657208 40.0636339 -16 42 C-14.02 44.64 -12.04 47.28 -10 50 C-13.76664392 49.05833902 -14.51008455 48.86869921 -17.015625 46.34765625 C-17.54414062 45.81849609 -18.07265625 45.28933594 -18.6171875 44.74414062 C-19.15601562 44.18919922 -19.69484375 43.63425781 -20.25 43.0625 C-20.80429688 42.51142578 -21.35859375 41.96035156 -21.9296875 41.39257812 C-26 37.26712592 -26 37.26712592 -26 35 C-23.53199953 36.15173355 -21.95216435 37.04783565 -20 39 C-15.49041586 38.74719073 -12.28574679 36.49124302 -8.67578125 34 C-8.08830612 33.60425781 -7.50083099 33.20851562 -6.89555359 32.80078125 C-5.02928923 31.54140702 -3.1707828 30.27111455 -1.3125 29 C0.55805987 27.73133512 2.43012681 26.46492647 4.3026886 25.19921875 C5.99559357 24.05322449 7.68478047 22.90174348 9.3737793 21.75 C12 20 12 20 14 19 C13.33131686 15.88667752 13.33131686 15.88667752 10.9375 14.8125 C10.298125 14.544375 9.65875 14.27625 9 14 C9 12.68 9 11.36 9 10 C3.76388242 8.69097061 0.73312446 9.4189368 -3.890625 12.06640625 C-4.59960938 12.46923828 -5.30859375 12.87207031 -6.0390625 13.28710938 C-6.76867187 13.70798828 -7.49828125 14.12886719 -8.25 14.5625 C-8.99507812 14.98724609 -9.74015625 15.41199219 -10.5078125 15.84960938 C-12.34098961 16.89546042 -14.17082677 17.94716192 -16 19 C-16.99 18.34 -17.98 17.68 -19 17 C-16.04550087 15.3264663 -13.0857982 13.66236015 -10.125 12 C-9.28324219 11.52304688 -8.44148438 11.04609375 -7.57421875 10.5546875 C-6.76855469 10.10351562 -5.96289062 9.65234375 -5.1328125 9.1875 C-4.38918457 8.76855469 -3.64555664 8.34960938 -2.87939453 7.91796875 C-1 7 -1 7 1 7 C0.4740625 5.824375 0.4740625 5.824375 -0.0625 4.625 C-0.5265625 3.325625 -0.5265625 3.325625 -1 2 C-0.67 1.34 -0.34 0.68 0 0 Z " fill="#D5D5D5" transform="translate(92,85)"/>
<path d="M0 0 C1.9375 0.75 1.9375 0.75 4 2 C5.45671493 5.80489882 4.40309961 8.11282316 2.8263092 11.78948975 C2.49304123 12.53442688 2.15977325 13.27936401 1.81640625 14.046875 C1.48205063 14.81807678 1.14769501 15.58927856 0.8032074 16.3838501 C-0.26635032 18.84405569 -1.35165498 21.29694575 -2.4375 23.75 C-3.16576199 25.41751125 -3.89298835 27.0854752 -4.61914062 28.75390625 C-6.40078914 32.84128619 -8.19659078 36.92217721 -10 41 C-12.3485057 40.09090102 -13.70016216 39.55618044 -14.91723633 37.29858398 C-15.04233311 33.82428827 -13.7339711 31.38281056 -12.32421875 28.22265625 C-12.03899857 27.57429306 -11.75377838 26.92592987 -11.45991516 26.25791931 C-10.5465002 24.18782856 -9.6174408 22.12521216 -8.6875 20.0625 C-8.0724942 18.67821081 -7.45854987 17.29344951 -6.84570312 15.90820312 C-5.9790286 13.94967443 -5.11091509 11.99195753 -4.23429871 10.03785706 C-2.74633736 6.7192984 -1.32332225 3.38768895 0 0 Z " fill="#0C0C0C" transform="translate(122,46)"/>
<path d="M0 0 C1.875 1.3125 1.875 1.3125 3.875 4.3125 C-0.12407888 6.13349888 -4.12601302 7.94802747 -8.13061523 9.75683594 C-9.49012517 10.37196376 -10.8488651 10.98879654 -12.20678711 11.60742188 C-14.16836604 12.50068587 -16.13271076 13.38760795 -18.09765625 14.2734375 C-19.27593994 14.80759277 -20.45422363 15.34174805 -21.66821289 15.89208984 C-25.13316111 17.31585344 -28.4715863 18.4802734 -32.125 19.3125 C-34.5625 18.0625 -34.5625 18.0625 -36.125 16.3125 C-36.125 15.6525 -36.125 14.9925 -36.125 14.3125 C-34.7932373 13.73749756 -34.7932373 13.73749756 -33.43457031 13.15087891 C-30.131664 11.72445669 -26.82940812 10.29653411 -23.52734375 8.86816406 C-22.09978568 8.25089417 -20.67205301 7.63402793 -19.24414062 7.01757812 C-17.18833804 6.12997534 -15.13317369 5.24090913 -13.078125 4.3515625 C-12.44255676 4.07752594 -11.80698853 3.80348938 -11.15216064 3.52114868 C-8.66380698 2.44294558 -6.21488269 1.36064463 -3.82324219 0.07958984 C-2.125 -0.6875 -2.125 -0.6875 0 0 Z " fill="#0D0D0C" transform="translate(170.125,92.6875)"/>
<path d="M0 0 C16.61751302 9.91503906 16.61751302 9.91503906 19.12109375 17.42578125 C15.88879588 16.00040268 13.71876785 14.24350178 11.18359375 11.80078125 C0.55280913 2.18578824 -10.93807619 -4.16123746 -25.37890625 -3.94921875 C-26.16910156 -3.96082031 -26.95929687 -3.97242188 -27.7734375 -3.984375 C-38.42679467 -3.93206719 -46.95969345 0.11275289 -54.82421875 7.171875 C-59.91964568 12.47685412 -62.40130725 18.57527711 -64.87890625 25.42578125 C-65.53890625 25.09578125 -66.19890625 24.76578125 -66.87890625 24.42578125 C-65.68848212 14.90238817 -59.67099733 7.76224063 -52.87890625 1.42578125 C-36.76647148 -10.34962221 -17.03443119 -9.31462113 0 0 Z " fill="#252525" transform="translate(77.87890625,65.57421875)"/>
<path d="M0 0 C4.75 1.875 4.75 1.875 7 3 C7 3.66 7 4.32 7 5 C7.86625 4.7525 8.7325 4.505 9.625 4.25 C13 4 13 4 16.25 5.625 C19.123878 8.10698555 19.93162061 9.43873538 21 13 C21.65213539 14.34050052 22.31379969 15.67661368 23 17 C20.69564223 18.45089193 19.31123703 19.00798044 16.5625 18.9375 C13.12709448 17.68064432 11.44195426 15.69241111 9 13 C7.8553125 11.9171875 7.8553125 11.9171875 6.6875 10.8125 C5 9 5 9 5 7 C2.525 6.01 2.525 6.01 0 5 C0 3.35 0 1.7 0 0 Z " fill="#D3D3D3" transform="translate(121,104)"/>
<path d="M0 0 C2.475 0.99 2.475 0.99 5 2 C4.06802082 5.15861573 3.40238453 6.70417071 0.71264648 8.68164062 C-0.22506592 9.16826172 -1.16277832 9.65488281 -2.12890625 10.15625 C-3.16466797 10.70410156 -4.20042969 11.25195312 -5.26757812 11.81640625 C-6.35490234 12.37199219 -7.44222656 12.92757812 -8.5625 13.5 C-10.68895635 14.61428898 -12.81526074 15.72886802 -14.94140625 16.84375 C-17.87458801 18.37290126 -20.80789284 19.90120008 -23.74951172 21.4140625 C-24.56307129 21.84460938 -25.37663086 22.27515625 -26.21484375 22.71875 C-26.92632568 23.08935547 -27.63780762 23.45996094 -28.37084961 23.84179688 C-30.32420619 24.98933022 -30.32420619 24.98933022 -31 28 C-36.66129431 23.30233025 -41.85228904 18.25276628 -47 13 C-46.34 12.34 -45.68 11.68 -45 11 C-45 11.66 -45 12.32 -45 13 C-44.1028125 13.433125 -44.1028125 13.433125 -43.1875 13.875 C-41 15 -41 15 -38 17 C-37.09636719 16.48308594 -36.19273438 15.96617188 -35.26171875 15.43359375 C-34.07060933 14.76769793 -32.8791866 14.10236234 -31.6875 13.4375 C-31.09259766 13.09525391 -30.49769531 12.75300781 -29.88476562 12.40039062 C-28.29717441 11.52233738 -26.65006069 10.75413732 -25 10 C-24.01 10.33 -23.02 10.66 -22 11 C-22.99902344 11.55429688 -23.99804688 12.10859375 -25.02734375 12.6796875 C-26.33088911 13.41117338 -27.63426584 14.14295982 -28.9375 14.875 C-29.59685547 15.23980469 -30.25621094 15.60460937 -30.93554688 15.98046875 C-34.57936369 17.85417898 -34.57936369 17.85417898 -37 21 C-36.01 21.33 -35.02 21.66 -34 22 C-34 22.66 -34 23.32 -34 24 C-25.89971219 19.60831449 -17.84770414 15.13450531 -9.8125 10.625 C-8.66974609 9.98433594 -7.52699219 9.34367187 -6.34960938 8.68359375 C-3.56608962 7.12295924 -0.78289268 5.56175232 2 4 C1.34 2.68 0.68 1.36 0 0 Z " fill="#DEDEDE" transform="translate(97,93)"/>
<path d="M0 0 C4.493637 1.37305575 6.23029183 3.27820464 9 7 C10.64646685 8.68662458 12.31183067 10.35511706 14 12 C15 13 16 14 17 15 C16.01 15.33 15.02 15.66 14 16 C11.3125 14.5625 11.3125 14.5625 9 13 C8.73429199 13.87019775 8.46858398 14.74039551 8.19482422 15.63696289 C7.02104959 18.94075232 5.60949392 21.76226687 3.8828125 24.80859375 C3.27566406 25.88560547 2.66851562 26.96261719 2.04296875 28.07226562 C1.09357422 29.73805664 1.09357422 29.73805664 0.125 31.4375 C-0.50019531 32.54416016 -1.12539062 33.65082031 -1.76953125 34.79101562 C-4.82994519 40.20335445 -7.91015418 45.60441496 -11 51 C-11.66 50.34 -12.32 49.68 -13 49 C-10.79529283 44.99774406 -8.58986255 40.99588774 -6.38378906 36.99438477 C-5.63489686 35.63576788 -4.88619528 34.27704591 -4.13769531 32.91821289 C-3.05585187 30.95430643 -1.97330161 28.99079099 -0.890625 27.02734375 C-0.56128967 26.42913315 -0.23195435 25.83092255 0.10736084 25.21458435 C2.81429837 20.30810036 2.81429837 20.30810036 4.1517334 18.08914185 C6.50809562 14.6100308 6.50809562 14.6100308 6.4375 10.625 C4.99383194 8.7195905 4.99383194 8.7195905 2 8 C0.3125 5.4375 0.3125 5.4375 -1 3 C-0.01 3 0.98 3 2 3 C1.34 2.01 0.68 1.02 0 0 Z " fill="#DBDBDB" transform="translate(121,109)"/>
<path d="M0 0 C1.875 1.375 1.875 1.375 3 3 C3 3.66 3 4.32 3 5 C3.99 5.33 4.98 5.66 6 6 C5.01 6 4.02 6 3 6 C2.8453125 7.175625 2.8453125 7.175625 2.6875 8.375 C2 11 2 11 -1 13 C-6.44444444 12.55555556 -6.44444444 12.55555556 -9 10 C-9.55021834 3.94759825 -9.55021834 3.94759825 -7.875 1.0625 C-5.11019567 -0.50422245 -3.11811483 -0.38976435 0 0 Z " fill="#0A0A09" transform="translate(165,51)"/>
<path d="M0 0 C0.99 0.66 1.98 1.32 3 2 C3.36328125 3.875 3.36328125 3.875 3.3125 6 C3.30863281 6.70125 3.30476563 7.4025 3.30078125 8.125 C3 10 3 10 1 12 C-5.05240175 12.55021834 -5.05240175 12.55021834 -7.9375 10.875 C-9.50422245 8.11019567 -9.38976435 6.11811483 -9 3 C-6.78229215 -0.69617975 -4.0271794 -0.41949785 0 0 Z " fill="#060606" transform="translate(64,149)"/>
<path d="M0 0 C0.66 0 1.32 0 2 0 C2.66 1.65 3.32 3.3 4 5 C3.34 5 2.68 5 2 5 C2 5.66 2 6.32 2 7 C2.9075 6.773125 3.815 6.54625 4.75 6.3125 C8 6 8 6 10.375 7.3125 C12 9 12 9 12 11 C12.8971875 11.433125 12.8971875 11.433125 13.8125 11.875 C16 13 16 13 19 15 C19 15.66 19 16.32 19 17 C19.99 17.33 20.98 17.66 22 18 C22 18.66 22 19.32 22 20 C20 20 18 20 16 20 C16 18.68 16 17.36 16 16 C13.69 15.34 11.38 14.68 9 14 C9 12.68 9 11.36 9 10 C3.76388242 8.69097061 0.73312446 9.4189368 -3.890625 12.06640625 C-4.59960938 12.46923828 -5.30859375 12.87207031 -6.0390625 13.28710938 C-6.76867187 13.70798828 -7.49828125 14.12886719 -8.25 14.5625 C-8.99507812 14.98724609 -9.74015625 15.41199219 -10.5078125 15.84960938 C-12.34098961 16.89546042 -14.17082677 17.94716192 -16 19 C-16.99 18.34 -17.98 17.68 -19 17 C-16.04550087 15.3264663 -13.0857982 13.66236015 -10.125 12 C-9.28324219 11.52304688 -8.44148438 11.04609375 -7.57421875 10.5546875 C-6.76855469 10.10351562 -5.96289062 9.65234375 -5.1328125 9.1875 C-4.38918457 8.76855469 -3.64555664 8.34960938 -2.87939453 7.91796875 C-1 7 -1 7 1 7 C0.4740625 5.824375 0.4740625 5.824375 -0.0625 4.625 C-0.5265625 3.325625 -0.5265625 3.325625 -1 2 C-0.67 1.34 -0.34 0.68 0 0 Z " fill="#D9D9D9" transform="translate(92,85)"/>
<path d="M0 0 C0.99 0.33 1.98 0.66 3 1 C3 1.66 3 2.32 3 3 C3.61875 3.268125 4.2375 3.53625 4.875 3.8125 C7 5 7 5 9 8 C6.33333333 8 3.66666667 8 1 8 C-0.46946586 9.43775618 -0.46946586 9.43775618 -1.78515625 11.41015625 C-2.31149658 12.14637207 -2.83783691 12.88258789 -3.38012695 13.64111328 C-3.93531006 14.4401709 -4.49049316 15.23922852 -5.0625 16.0625 C-5.63379639 16.86929199 -6.20509277 17.67608398 -6.79370117 18.50732422 C-12.00689571 25.90786804 -17.04876591 33.42226475 -22 41 C-22.33 40.34 -22.66 39.68 -23 39 C-23.66 38.67 -24.32 38.34 -25 38 C-24.30777344 37.36707031 -23.61554688 36.73414063 -22.90234375 36.08203125 C-19.20179237 32.37887477 -16.45199207 28.03018691 -13.5625 23.6875 C-12.46145038 22.04435528 -11.35859906 20.40241636 -10.25390625 18.76171875 C-9.71797852 17.96491699 -9.18205078 17.16811523 -8.62988281 16.34716797 C-6.58117639 13.39685887 -4.39929211 10.5646217 -2.16723633 7.7512207 C-0.51714266 5.2755625 -0.14677978 2.93559562 0 0 Z " fill="#D8D8D8" transform="translate(115,105)"/>
<path d="M0 0 C0.66 0.33 1.32 0.66 2 1 C1.33411865 2.19544434 1.33411865 2.19544434 0.65478516 3.41503906 C-0.99710811 6.38161629 -2.64822701 9.34862174 -4.29882812 12.31591797 C-5.01238678 13.59831626 -5.72625063 14.88054478 -6.44042969 16.16259766 C-7.46890919 18.00899052 -8.4962774 19.8559979 -9.5234375 21.703125 C-10.14138184 22.81333008 -10.75932617 23.92353516 -11.39599609 25.06738281 C-12.64912447 27.35849059 -13.85647928 29.65303607 -15 32 C-15.66 32 -16.32 32 -17 32 C-17 32.99 -17 33.98 -17 35 C-18.9375 34.625 -18.9375 34.625 -21 34 C-21.33 33.34 -21.66 32.68 -22 32 C-20.68 32.33 -19.36 32.66 -18 33 C-18 32.01 -18 31.02 -18 30 C-18.969375 29.7525 -19.93875 29.505 -20.9375 29.25 C-21.948125 28.8375 -22.95875 28.425 -24 28 C-24.875 25.875 -24.875 25.875 -25 24 C-24.34 24 -23.68 24 -23 24 C-22.67 23.34 -22.34 22.68 -22 22 C-22 23.32 -22 24.64 -22 26 C-21.38125 26.309375 -20.7625 26.61875 -20.125 26.9375 C-18.75 27.625 -17.375 28.3125 -16 29 C-15.73195557 28.28811523 -15.46391113 27.57623047 -15.18774414 26.84277344 C-13.96977695 23.92766347 -12.55376222 21.26336074 -10.99609375 18.515625 C-10.42052734 17.49855469 -9.84496094 16.48148438 -9.25195312 15.43359375 C-8.35379883 13.85771484 -8.35379883 13.85771484 -7.4375 12.25 C-6.83486328 11.18394531 -6.23222656 10.11789063 -5.61132812 9.01953125 C-1.13900267 1.13900267 -1.13900267 1.13900267 0 0 Z " fill="#DDDDDD" transform="translate(135,64)"/>
<path d="M0 0 C18.80510531 -1.01344879 32.30941581 4.2416314 46.625 16.75 C50.8556391 20.56691729 50.8556391 20.56691729 52 24 C48.76770213 22.57462143 46.5976741 20.81772053 44.0625 18.375 C31.20117156 6.8166166 17.17733951 1.62920658 0 1 C0 0.67 0 0.34 0 0 Z " fill="#1A1A1A" transform="translate(45,59)"/>
<path d="M0 0 C2.93246533 1.31455342 4.74873617 2.74873617 7 5 C8.3303125 5.7425 8.3303125 5.7425 9.6875 6.5 C10.450625 6.995 11.21375 7.49 12 8 C12 8.99 12 9.98 12 11 C11.01 11 10.02 11 9 11 C10.32 11.66 11.64 12.32 13 13 C13 13.66 13 14.32 13 15 C13.99 15 14.98 15 16 15 C15.67 15.99 15.34 16.98 15 18 C12.525 17.01 12.525 17.01 10 16 C10 15.34 10 14.68 10 14 C9.13375 13.8453125 9.13375 13.8453125 8.25 13.6875 C5.64338842 12.89103535 4.0264689 11.80934723 2 10 C2 9.34 2 8.68 2 8 C0.68 7.34 -0.64 6.68 -2 6 C-1.67 5.34 -1.34 4.68 -1 4 C-1 3.67 -1 3.34 -1 3 C-0.67 2.01 -0.34 1.02 0 0 Z " fill="#9D9D9D" transform="translate(105,86)"/>
<path d="M0 0 C-2.51227092 2.51227092 -4.94722589 3.41362293 -8.21484375 4.8203125 C-8.82638809 5.08383514 -9.43793243 5.34735779 -10.06800842 5.61886597 C-11.3606364 6.17425204 -12.65432175 6.72718266 -13.94897461 7.27783203 C-15.92962284 8.12164411 -17.90534568 8.97627877 -19.88085938 9.83203125 C-21.13773822 10.37045188 -22.39489087 10.90823387 -23.65234375 11.4453125 C-25.36925415 12.18031982 -25.36925415 12.18031982 -27.12084961 12.93017578 C-30 14 -30 14 -33 14 C-33.33 14.66 -33.66 15.32 -34 16 C-34.66 15.67 -35.32 15.34 -36 15 C-36 13.68 -36 12.36 -36 11 C-36.33 10.34 -36.66 9.68 -37 9 C-36.443125 9.350625 -35.88625 9.70125 -35.3125 10.0625 C-31.5960122 11.56918424 -28.80541916 10.32593979 -25.18505859 8.86083984 C-24.18297363 8.39887207 -23.18088867 7.9369043 -22.1484375 7.4609375 C-21.05015625 6.96335937 -19.951875 6.46578125 -18.8203125 5.953125 C-16.5140193 4.89672766 -14.20933962 3.83680095 -11.90625 2.7734375 C-10.81054688 2.2784375 -9.71484375 1.7834375 -8.5859375 1.2734375 C-7.5861084 0.81372559 -6.5862793 0.35401367 -5.55615234 -0.11962891 C-3 -1 -3 -1 0 0 Z " fill="#DBDBDB" transform="translate(164,94)"/>
<path d="M0 0 C-0.99902344 0.55429688 -1.99804688 1.10859375 -3.02734375 1.6796875 C-4.33088911 2.41117338 -5.63426584 3.14295982 -6.9375 3.875 C-7.59685547 4.23980469 -8.25621094 4.60460937 -8.93554688 4.98046875 C-12.57936369 6.85417898 -12.57936369 6.85417898 -15 10 C-14.01 10.33 -13.02 10.66 -12 11 C-12 11.66 -12 12.32 -12 13 C-10.35 12.67 -8.7 12.34 -7 12 C-7.66 13.65 -8.32 15.3 -9 17 C-14.66129431 12.30233025 -19.85228904 7.25276628 -25 2 C-24.34 1.34 -23.68 0.68 -23 0 C-23 0.66 -23 1.32 -23 2 C-22.401875 2.28875 -21.80375 2.5775 -21.1875 2.875 C-19 4 -19 4 -16 6 C-14.64455078 5.22462891 -14.64455078 5.22462891 -13.26171875 4.43359375 C-12.07060933 3.76769793 -10.8791866 3.10236234 -9.6875 2.4375 C-8.79514648 1.92413086 -8.79514648 1.92413086 -7.88476562 1.40039062 C-3.33984375 -1.11328125 -3.33984375 -1.11328125 0 0 Z " fill="#E4E4E4" transform="translate(75,104)"/>
<path d="M0 0 C0.33 0.99 0.66 1.98 1 3 C-6.92 10.92 -14.84 18.84 -23 27 C-23.99 26.67 -24.98 26.34 -26 26 C-17.42 17.42 -8.84 8.84 0 0 Z " fill="#D2D2D2" transform="translate(109,108)"/>
<path d="M0 0 C0.66 0.66 1.32 1.32 2 2 C-0.21706552 6.07877593 -2.44093725 10.15373557 -4.67114258 14.2253418 C-5.42855075 15.61038618 -6.18410339 16.99644697 -6.93774414 18.38354492 C-8.02261522 20.37950747 -9.11415165 22.371695 -10.20703125 24.36328125 C-10.54152786 24.98213699 -10.87602448 25.60099274 -11.22065735 26.23860168 C-12.8602054 29.2112255 -14.40977365 31.77429806 -17 34 C-17.33 33.34 -17.66 32.68 -18 32 C-16.78417969 29.3737793 -16.78417969 29.3737793 -14.921875 26.07421875 C-14.5946344 25.4896138 -14.2673938 24.90500885 -13.93023682 24.3026886 C-12.8776233 22.42664455 -11.81391376 20.55715431 -10.75 18.6875 C-10.04745836 17.43855506 -9.34562663 16.1892105 -8.64453125 14.93945312 C-5.82335045 9.92270885 -2.98136079 4.92381444 0 0 Z " fill="#DADADA" transform="translate(122,116)"/>
<path d="M0 0 C0.66 0.99 1.32 1.98 2 3 C1.28515625 5.12109375 1.28515625 5.12109375 0.0625 7.4375 C-1.67536871 10.64123944 -1.67536871 10.64123944 -1.7265625 14.17578125 C-0.8672063 16.33341215 0.26062437 17.48749945 2 19 C-1 20 -1 20 -3.1875 19.0625 C-4.0846875 18.5365625 -4.0846875 18.5365625 -5 18 C-5.66 18.66 -6.32 19.32 -7 20 C-7 19.34 -7 18.68 -7 18 C-8.32 17.34 -9.64 16.68 -11 16 C-11 14.68 -11 13.36 -11 12 C-9.35 12.33 -7.7 12.66 -6 13 C-3.81673892 8.72886302 -1.68673918 4.49797113 0 0 Z " fill="#D1D1D1" transform="translate(110,69)"/>
<path d="M0 0 C4.493637 1.37305575 6.23029183 3.27820464 9 7 C10.64646685 8.68662458 12.31183067 10.35511706 14 12 C15 13 16 14 17 15 C16.01 15.33 15.02 15.66 14 16 C12.09765625 14.85546875 12.09765625 14.85546875 10.0625 13.1875 C8.02153599 11.53192033 6.22597798 10.10907863 3.85546875 8.96484375 C1.21183664 7.59015506 0.35868656 5.58150447 -1 3 C-0.01 3 0.98 3 2 3 C1.34 2.01 0.68 1.02 0 0 Z " fill="#E4E4E4" transform="translate(121,109)"/>
<path d="M0 0 C1.98 0.99 3.96 1.98 6 3 C6 3.66 6 4.32 6 5 C8.39719432 5.67958603 8.39719432 5.67958603 11 6 C11.66 5.34 12.32 4.68 13 4 C13.66 4.33 14.32 4.66 15 5 C15 5.66 15 6.32 15 7 C14.01 7 13.02 7 12 7 C12.33 7.99 12.66 8.98 13 10 C12.34 10.66 11.68 11.32 11 12 C10.34 11.67 9.68 11.34 9 11 C9 10.34 9 9.68 9 9 C6.84188612 9.94729537 6.84188612 9.94729537 5 12 C2.875 12.625 2.875 12.625 1 13 C1 10.69 1 8.38 1 6 C2.32 6.66 3.64 7.32 5 8 C4.2575 7.319375 4.2575 7.319375 3.5 6.625 C2 5 2 5 2 3 C1.01 2.67 0.02 2.34 -1 2 C-0.67 1.34 -0.34 0.68 0 0 Z " fill="#F5F5F5" transform="translate(109,97)"/>
<path d="M0 0 C1.98 0 3.96 0 6 0 C6.33 0.99 6.66 1.98 7 3 C8.32 2.67 9.64 2.34 11 2 C10.79375 2.928125 10.5875 3.85625 10.375 4.8125 C9.63307034 8.15173402 9.63307034 8.15173402 12 11 C7.25 10.25 7.25 10.25 5 8 C5.33 7.34 5.66 6.68 6 6 C3.03 5.505 3.03 5.505 0 5 C0 3.35 0 1.7 0 0 Z " fill="#CACACA" transform="translate(118,96)"/>
<path d="M0 0 C4.75 1.875 4.75 1.875 7 3 C7 3.66 7 4.32 7 5 C8.32 5.66 9.64 6.32 11 7 C10.01 7.33 9.02 7.66 8 8 C8.99 8.66 9.98 9.32 11 10 C11 10.99 11 11.98 11 13 C7.23076923 11.49230769 7.23076923 11.49230769 6.0625 9 C4.60163333 6.25013332 2.88694538 5.91166696 0 5 C0 3.35 0 1.7 0 0 Z " fill="#8E8E8E" transform="translate(121,104)"/>
<path d="M0 0 C2.96175123 0.61277612 4.38058783 1.25372522 7 3 C7 3.66 7 4.32 7 5 C7.598125 5.28875 8.19625 5.5775 8.8125 5.875 C11 7 11 7 14 9 C14 9.66 14 10.32 14 11 C14.99 11.33 15.98 11.66 17 12 C17 12.66 17 13.32 17 14 C15 14 13 14 11 14 C11 12.68 11 11.36 11 10 C8.69 9.34 6.38 8.68 4 8 C4 6.68 4 5.36 4 4 C2.08333079 1.74934898 2.08333079 1.74934898 0 0 Z " fill="#777777" transform="translate(97,91)"/>
<path d="M0 0 C1.65 0.66 3.3 1.32 5 2 C3.65976116 7.67263879 -0.35979346 9.8312479 -4.9375 12.875 C-5.66646484 13.38546875 -6.39542969 13.8959375 -7.14648438 14.421875 C-11.20697354 17.17601064 -11.20697354 17.17601064 -13 18 C-13.99 17.67 -14.98 17.34 -16 17 C-10.16594374 12.65346984 -4.4266106 8.42752566 2 5 C1.34 3.35 0.68 1.7 0 0 Z " fill="#DDDDDD" transform="translate(104,99)"/>
<path d="M0 0 C3.33053342 0.62120061 5.45076238 1.8434447 8.1875 3.8125 C12.57569111 6.83758191 17.06505006 9.01668679 22 11 C22 11.33 22 11.66 22 12 C14.31524901 11.8550047 9.00322985 8.68426497 3 4 C1.17578125 1.76953125 1.17578125 1.76953125 0 0 Z " fill="#222222" transform="translate(140,122)"/>
<path d="M0 0 C2.475 0.99 2.475 0.99 5 2 C4.04209163 5.55881147 3.34133178 6.78205824 0.1796875 8.80078125 C-0.91085938 9.29964844 -2.00140625 9.79851562 -3.125 10.3125 C-4.22070312 10.82425781 -5.31640625 11.33601563 -6.4453125 11.86328125 C-7.28835937 12.23839844 -8.13140625 12.61351563 -9 13 C-9 12.01 -9 11.02 -9 10 C-5.37 8.02 -1.74 6.04 2 4 C1.34 2.68 0.68 1.36 0 0 Z " fill="#D7D7D7" transform="translate(97,93)"/>
<path d="M0 0 C0.04125 0.61875 0.0825 1.2375 0.125 1.875 C0.41375 2.57625 0.7025 3.2775 1 4 C1.99 4.33 2.98 4.66 4 5 C4.99 5.33 5.98 5.66 7 6 C7.875 8.125 7.875 8.125 8 10 C7.34 10 6.68 10 6 10 C6 10.99 6 11.98 6 13 C4.0625 12.625 4.0625 12.625 2 12 C1.67 11.34 1.34 10.68 1 10 C2.32 10.33 3.64 10.66 5 11 C5 10.01 5 9.02 5 8 C4.030625 7.7525 3.06125 7.505 2.0625 7.25 C1.051875 6.8375 0.04125 6.425 -1 6 C-1.875 3.875 -1.875 3.875 -2 2 C-1.34 2 -0.68 2 0 2 C0 1.34 0 0.68 0 0 Z " fill="#EBEBEB" transform="translate(112,86)"/>
<path d="M0 0 C0.99 0.33 1.98 0.66 3 1 C3 1.66 3 2.32 3 3 C3.61875 3.268125 4.2375 3.53625 4.875 3.8125 C7 5 7 5 9 8 C1 8 1 8 -2 7 C-1.67 6.21625 -1.34 5.4325 -1 4.625 C0.11866511 2.15667503 0.11866511 2.15667503 0 0 Z " fill="#A1A1A1" transform="translate(115,105)"/>
<path d="M0 0 C0.99 0.33 1.98 0.66 3 1 C1.71053695 2.79325326 0.41835648 4.58455278 -0.875 6.375 C-1.95394531 7.87160156 -1.95394531 7.87160156 -3.0546875 9.3984375 C-5 12 -5 12 -7 14 C-7 13.34 -7 12.68 -7 12 C-7.66 11.67 -8.32 11.34 -9 11 C-7.88625 9.948125 -7.88625 9.948125 -6.75 8.875 C-4.02182777 6.02281994 -2.08697046 3.3236937 0 0 Z " fill="#CDCDCD" transform="translate(99,132)"/>
<path d="M0 0 C7.84179688 6.4453125 7.84179688 6.4453125 10 10 C10 10.66 10 11.32 10 12 C8.68 11.67 7.36 11.34 6 11 C6 10.34 6 9.68 6 9 C4.44316885 7.19939002 4.44316885 7.19939002 2.5 5.375 C1.8503125 4.74335937 1.200625 4.11171875 0.53125 3.4609375 C0.0259375 2.97882813 -0.479375 2.49671875 -1 2 C-0.67 1.34 -0.34 0.68 0 0 Z " fill="#D6D5D5" transform="translate(176,96)"/>
<path d="M0 0 C2.62526301 2.62526301 3.15535845 4.36154409 4 8 C3.87437946 11.36663038 3.48729471 14.66795778 3 18 C2.67 18 2.34 18 2 18 C1.86722656 17.09636719 1.73445312 16.19273438 1.59765625 15.26171875 C1.42105469 14.08222656 1.24445313 12.90273437 1.0625 11.6875 C0.88847656 10.51574219 0.71445313 9.34398438 0.53515625 8.13671875 C0.07906969 4.98358597 0.07906969 4.98358597 -1 2 C-0.67 1.34 -0.34 0.68 0 0 Z " fill="#2F2F2E" transform="translate(206,82)"/>
<path d="M0 0 C0.66 0.99 1.32 1.98 2 3 C-0.31 6.96 -2.62 10.92 -5 15 C-5.66 14.34 -6.32 13.68 -7 13 C-3.535 6.565 -3.535 6.565 0 0 Z " fill="#CFCFCF" transform="translate(111,135)"/>
<path d="M0 0 C3.21524305 1.40844718 5.32183868 3.10344786 7.75 5.625 C8.67039062 6.57246094 8.67039062 6.57246094 9.609375 7.5390625 C10.29773438 8.26222656 10.29773438 8.26222656 11 9 C10.34 9.66 9.68 10.32 9 11 C7.49403892 9.54782324 5.99537896 8.08807139 4.5 6.625 C3.6646875 5.81289062 2.829375 5.00078125 1.96875 4.1640625 C0 2 0 2 0 0 Z " fill="#D2D2D2" transform="translate(108,162)"/>
<path d="M0 0 C0.66 0.66 1.32 1.32 2 2 C-4.93 4.97 -4.93 4.97 -12 8 C-12 7.01 -12 6.02 -12 5 C-8.04 3.35 -4.08 1.7 0 0 Z " fill="#D5D5D4" transform="translate(168,99)"/>
<path d="M0 0 C1.98 1.65 3.96 3.3 6 5 C5.34 7.97 4.68 10.94 4 14 C3.34 13.67 2.68 13.34 2 13 C2.2475 11.9275 2.495 10.855 2.75 9.75 C3.42428622 5.97254504 3.42428622 5.97254504 1.0625 3.5625 C0.381875 3.046875 -0.29875 2.53125 -1 2 C-0.67 1.34 -0.34 0.68 0 0 Z " fill="#CFCFCF" transform="translate(117,37)"/>
<path d="M0 0 C1.17949219 0.10183594 2.35898438 0.20367187 3.57421875 0.30859375 C4.47785156 0.39238281 5.38148438 0.47617188 6.3125 0.5625 C2.23010955 2.85884463 -1.08754775 3.05265885 -5.6875 2.5625 C-8.1875 1.5625 -8.1875 1.5625 -9.6875 0.5625 C-6.14075997 -0.61974668 -3.71227005 -0.33079634 0 0 Z " fill="#343434" transform="translate(168.6875,133.4375)"/>
<path d="M0 0 C0.7734375 0.495 0.7734375 0.495 1.5625 1 C4.78026512 2.32010877 7.5570528 2.13242105 11 2 C7.375 5 7.375 5 4 5 C3.67 5.66 3.34 6.32 3 7 C2.34 6.67 1.68 6.34 1 6 C1 4.68 1 3.36 1 2 C0.67 1.34 0.34 0.68 0 0 Z " fill="#F2F2F2" transform="translate(127,103)"/>
<path d="M0 0 C0.66 0.66 1.32 1.32 2 2 C-0.97 6.95 -0.97 6.95 -4 12 C-4.66 11.34 -5.32 10.68 -6 10 C-4.02 6.7 -2.04 3.4 0 0 Z " fill="#D3D3D3" transform="translate(125,81)"/>
<path d="M0 0 C1.12894876 0.93274109 2.25300876 1.87140122 3.375 2.8125 C4.00148437 3.33457031 4.62796875 3.85664062 5.2734375 4.39453125 C7 6 7 6 9 9 C6 9 6 9 4.17578125 7.46875 C3.56089844 6.8190625 2.94601563 6.169375 2.3125 5.5 C1.68988281 4.8503125 1.06726563 4.200625 0.42578125 3.53125 C-0.04472656 3.0259375 -0.51523438 2.520625 -1 2 C-0.67 1.34 -0.34 0.68 0 0 Z " fill="#D6D6D5" transform="translate(160,80)"/>
<path d="M0 0 C0.74958984 0.05220703 1.49917969 0.10441406 2.27148438 0.15820312 C4.11887082 0.28763784 5.96574371 0.42436518 7.8125 0.5625 C7.8125 0.8925 7.8125 1.2225 7.8125 1.5625 C5.02130221 1.78364415 2.2303788 1.98993301 -0.5625 2.1875 C-1.3565625 2.25195312 -2.150625 2.31640625 -2.96875 2.3828125 C-5.03778224 2.52308587 -7.11375536 2.55008237 -9.1875 2.5625 C-9.8475 1.9025 -10.5075 1.2425 -11.1875 0.5625 C-7.35939179 -0.71353607 -3.95274893 -0.30033987 0 0 Z " fill="#535353" transform="translate(49.1875,59.4375)"/>
<path d="M0 0 C2.475 0.99 2.475 0.99 5 2 C5 3.66666667 5 5.33333333 5 7 C2.525 6.01 2.525 6.01 0 5 C0 3.35 0 1.7 0 0 Z " fill="#777777" transform="translate(121,104)"/>
<path d="M0 0 C2.4375 0.8125 2.4375 0.8125 5 2 C5.33 2.99 5.66 3.98 6 5 C5.34 5 4.68 5 4 5 C3.67 5.99 3.34 6.98 3 8 C1.68 6.35 0.36 4.7 -1 3 C-0.01 3 0.98 3 2 3 C1.34 2.01 0.68 1.02 0 0 Z " fill="#F6F5F6" transform="translate(121,109)"/>
<path d="M0 0 C3.99455527 0.61454696 6.74466336 2.70646737 10 5 C9.34 5.66 8.68 6.32 8 7 C6.66144944 6.21718695 5.32926356 5.42348123 4 4.625 C3.2575 4.18414062 2.515 3.74328125 1.75 3.2890625 C1.1725 2.86367187 0.595 2.43828125 0 2 C0 1.34 0 0.68 0 0 Z " fill="#282828" transform="translate(76,66)"/>
<path d="M0 0 C2.17854707 3.2678206 3.49760034 6.38058265 5 10 C4.34 10.66 3.68 11.32 3 12 C0.58314288 7.77050005 -0.34833144 4.87664009 0 0 Z " fill="#343434" transform="translate(13,108)"/>
<path d="M0 0 C0.33 0 0.66 0 1 0 C1.16682272 4.92127034 1.24828052 8.50343896 -1 13 C-1.33 13 -1.66 13 -2 13 C-1.85769192 11.58297487 -1.71099254 10.1663904 -1.5625 8.75 C-1.48128906 7.96109375 -1.40007812 7.1721875 -1.31640625 6.359375 C-1.02365007 4.17635361 -0.57935581 2.1226818 0 0 Z " fill="#1F1F1E" transform="translate(209,96)"/>
<path d="M0 0 C1.9375 0.75 1.9375 0.75 4 2 C4.75 4.125 4.75 4.125 5 6 C2.525 5.01 2.525 5.01 0 4 C0 2.68 0 1.36 0 0 Z " fill="#141414" transform="translate(105,86)"/>
<path d="M0 0 C2.375 0.3125 2.375 0.3125 5 1 C5.66 1.99 6.32 2.98 7 4 C6.67 4.66 6.34 5.32 6 6 C5.34 6 4.68 6 4 6 C4 5.34 4 4.68 4 4 C3.34 4 2.68 4 2 4 C2 3.34 2 2.68 2 2 C1.34 2 0.68 2 0 2 C0 1.34 0 0.68 0 0 Z " fill="#B8B8B8" transform="translate(131,108)"/>
<path d="M0 0 C2.4375 0.8125 2.4375 0.8125 5 2 C5.33 2.99 5.66 3.98 6 5 C4.02 5.66 2.04 6.32 0 7 C0 4.69 0 2.38 0 0 Z " fill="#E5E5E5" transform="translate(110,103)"/>
<path d="M0 0 C2.475 0.99 2.475 0.99 5 2 C4.3125 4.375 4.3125 4.375 3 7 C0.375 8.3125 0.375 8.3125 -2 9 C-2 8.34 -2 7.68 -2 7 C-0.68 6.34 0.64 5.68 2 5 C1.34 3.35 0.68 1.7 0 0 Z " fill="#E3E2E3" transform="translate(104,99)"/>
<path d="M0 0 C2.64752004 2.57784846 4.94432065 4.91648098 7 8 C6.01 8 5.02 8 4 8 C0 3.77142857 0 3.77142857 0 0 Z " fill="#232323" transform="translate(17,118)"/>
<path d="M0 0 C2.62187494 1.04874998 3.79371361 1.64931313 5.25 4.125 C5.4975 4.74375 5.745 5.3625 6 6 C3.13275314 5.42655063 2.1385485 5.1385485 0 3 C0 2.01 0 1.02 0 0 Z " fill="#151515" transform="translate(133,117)"/>
<path d="M0 0 C0.66 0.33 1.32 0.66 2 1 C-0.97 4.96 -0.97 4.96 -4 9 C-4.66 8.67 -5.32 8.34 -6 8 C-4.02 5.36 -2.04 2.72 0 0 Z " fill="#E0E0E0" transform="translate(113,113)"/>
<path d="M0 0 C0.66 0 1.32 0 2 0 C2.66 1.65 3.32 3.3 4 5 C3.34 5 2.68 5 2 5 C1.67 5.66 1.34 6.32 1 7 C-0.0625 4.625 -0.0625 4.625 -1 2 C-0.67 1.34 -0.34 0.68 0 0 Z " fill="#919191" transform="translate(92,85)"/>
<path d="M0 0 C1.32 0.66 2.64 1.32 4 2 C4 2.99 4 3.98 4 5 C2.68 4.67 1.36 4.34 0 4 C0 2.68 0 1.36 0 0 Z " fill="#1A1A1A" transform="translate(99,81)"/>
<path d="M0 0 C0.66 0.99 1.32 1.98 2 3 C0.625 6.6875 0.625 6.6875 -1 10 C-1.66 9.67 -2.32 9.34 -3 9 C-2.01 6.03 -1.02 3.06 0 0 Z " fill="#CBCBCB" transform="translate(119,68)"/>
<path d="M0 0 C1.20076172 0.31324219 1.20076172 0.31324219 2.42578125 0.6328125 C3.23402344 0.83648437 4.04226562 1.04015625 4.875 1.25 C5.48988281 1.41757812 6.10476562 1.58515625 6.73828125 1.7578125 C4.49528347 3.12179763 3.24757292 3.81543309 0.59765625 3.515625 C-1.35546875 2.9296875 -3.30859375 2.34375 -5.26171875 1.7578125 C-2.26171875 -0.2421875 -2.26171875 -0.2421875 0 0 Z " fill="#2C2C2B" transform="translate(173.26171875,56.2421875)"/>
<path d="M0 0 C0.66 0.66 1.32 1.32 2 2 C0.68 4.31 -0.64 6.62 -2 9 C-2.66 8.34 -3.32 7.68 -4 7 C-2.68 4.69 -1.36 2.38 0 0 Z " fill="#D4D4D4" transform="translate(112,151)"/>
<path d="M0 0 C3.87132028 0.57352893 6.08172796 2.48704352 9 5 C8.01 5.495 8.01 5.495 7 6 C5.83054208 5.19152271 4.66449539 4.37810888 3.5 3.5625 C2.8503125 3.11003906 2.200625 2.65757812 1.53125 2.19140625 C1.0259375 1.79824219 0.520625 1.40507812 0 1 C0 0.67 0 0.34 0 0 Z " fill="#1C1C1C" transform="translate(47,147)"/>
<path d="M0 0 C0.33 0.66 0.66 1.32 1 2 C1.9590625 2.4640625 1.9590625 2.4640625 2.9375 2.9375 C5 4 5 4 7 7 C3.74456771 6.65120368 2.98126893 5.97866739 0.75 3.4375 C-0.11625 2.2309375 -0.11625 2.2309375 -1 1 C-0.67 0.67 -0.34 0.34 0 0 Z " fill="#D6D6D6" transform="translate(51,104)"/>
<path d="M0 0 C-2.46278801 2.46278801 -4.70676982 2.99771255 -8 4 C-8.66 3.34 -9.32 2.68 -10 2 C-3.375 -1.125 -3.375 -1.125 0 0 Z " fill="#D0D0D0" transform="translate(164,94)"/>
<path d="M0 0 C2.5 1.3125 2.5 1.3125 5 3 C5 3.99 5 4.98 5 6 C2.525 5.01 2.525 5.01 0 4 C0 2.68 0 1.36 0 0 Z " fill="#2D2D2D" transform="translate(112,91)"/>
<path d="M0 0 C3.36720387 1.39332574 4.9859524 2.9789286 7 6 C4.03824877 5.38722388 2.61941217 4.74627478 0 3 C0 2.01 0 1.02 0 0 Z " fill="#DCDCDC" transform="translate(122,43)"/>
</svg>
