<?xml version="1.0" standalone="no"?>
<!DOCTYPE svg PUBLIC "-//W3C//DTD SVG 20010904//EN"
 "http://www.w3.org/TR/2001/REC-SVG-20010904/DTD/svg10.dtd">
<svg version="1.0" xmlns="http://www.w3.org/2000/svg"
 width="1920.000000pt" height="1920.000000pt" viewBox="0 0 1920.000000 1920.000000"
 preserveAspectRatio="xMidYMid meet">

<g transform="translate(0.000000,1920.000000) scale(0.100000,-0.100000)"
fill="#000000" stroke="none">
<path d="M8936 16592 c-153 -642 -370 -1552 -483 -2022 -112 -470 -210 -881
-218 -913 l-13 -57 85 -57 c283 -186 415 -435 400 -752 -15 -316 -163 -552
-440 -701 -249 -135 -537 -146 -783 -31 -263 123 -425 360 -490 716 -27 149
-25 416 4 549 49 220 141 454 323 819 300 599 451 972 509 1258 23 113 28 303
11 410 -68 422 -401 882 -861 1188 -98 66 -200 125 -200 117 0 -4 32 -43 71
-89 390 -450 591 -960 550 -1395 -41 -444 -248 -841 -667 -1282 -233 -245
-308 -358 -423 -639 -59 -142 -140 -386 -175 -526 -286 -1137 156 -2003 1148
-2246 210 -51 325 -63 596 -63 135 0 282 6 328 12 76 11 88 15 129 52 155 136
324 137 472 4 l51 -46 0 -85 0 -85 -48 -52 c-189 -208 -191 -533 -3 -738 l51
-56 0 -906 c0 -764 -2 -906 -14 -906 -7 0 -211 41 -452 90 -242 50 -603 125
-804 166 -201 41 -391 82 -422 91 -83 23 -197 14 -263 -19 -140 -72 -290 -289
-371 -535 -57 -174 -76 -300 -81 -546 -7 -299 19 -516 92 -772 131 -458 381
-795 641 -864 40 -11 59 -4 768 264 399 151 731 275 737 275 13 0 12 -3 -68
-224 -226 -626 -517 -1068 -849 -1289 -188 -125 -340 -172 -559 -171 -207 1
-310 28 -600 159 -354 159 -572 213 -828 202 -155 -6 -244 -28 -359 -89 -241
-129 -408 -397 -480 -772 -14 -73 -27 -116 -35 -116 -7 0 -37 -9 -67 -21 -67
-25 -134 -87 -173 -160 -25 -48 -28 -64 -28 -149 0 -112 22 -167 93 -238 66
-67 140 -96 237 -96 97 0 171 29 237 96 71 71 93 126 93 238 0 85 -3 101 -28
148 -37 70 -97 129 -163 158 -30 13 -54 26 -54 28 0 2 7 41 16 87 43 225 133
424 251 549 133 142 263 199 469 208 235 9 437 -45 839 -226 133 -60 213 -88
325 -113 112 -26 304 -35 409 -20 593 87 1072 645 1414 1644 l72 212 3 -2417
2 -2418 360 0 360 0 0 2605 c0 1433 3 2605 8 2605 4 0 414 -52 911 -117 l904
-116 46 24 c25 13 76 53 112 89 142 139 237 366 286 682 24 155 24 505 -1 673
-65 449 -218 812 -441 1044 -93 97 -183 164 -263 197 -79 32 -186 32 -262 0
-31 -13 -318 -210 -669 -459 -338 -240 -618 -437 -623 -437 -25 0 292 341 457
493 511 470 980 703 1380 684 309 -14 566 -157 813 -451 103 -123 261 -284
352 -360 462 -384 914 -378 1305 18 55 56 129 143 165 193 l64 93 66 -6 c160
-15 312 83 355 229 35 119 7 243 -74 330 -68 73 -127 100 -232 105 -78 4 -92
2 -147 -23 -81 -36 -151 -110 -181 -190 -44 -115 -13 -271 68 -349 l30 -29
-52 -75 c-29 -42 -88 -114 -132 -160 -335 -355 -689 -382 -1090 -84 -112 83
-245 215 -398 394 -223 261 -421 395 -697 471 -104 28 -375 31 -500 4 -446
-95 -931 -414 -1430 -942 -62 -66 -117 -121 -121 -123 -5 -2 -9 321 -9 718 l0
722 51 56 c188 205 186 530 -3 738 l-48 52 0 85 0 85 51 46 c116 104 237 127
360 69 35 -17 85 -49 111 -72 43 -38 54 -42 130 -53 134 -19 551 -15 692 5
812 121 1319 585 1443 1323 25 150 25 491 0 654 -47 303 -147 642 -278 934
-92 207 -175 327 -371 533 -429 453 -640 853 -678 1282 -37 432 127 880 488
1334 46 58 94 115 108 128 73 68 -19 24 -191 -92 -434 -294 -752 -722 -834
-1126 -28 -137 -29 -328 -1 -464 26 -127 104 -366 179 -550 68 -166 147 -336
312 -669 203 -410 292 -634 339 -851 43 -196 35 -459 -20 -673 -73 -285 -236
-493 -472 -600 -132 -60 -186 -71 -353 -70 -134 0 -159 3 -240 28 -215 65
-403 204 -504 370 -75 124 -111 248 -118 407 -15 317 117 566 400 752 l85 57
-13 57 c-8 32 -27 114 -44 183 -43 182 -165 691 -465 1945 -146 611 -308 1290
-361 1510 -53 220 -99 415 -102 433 -3 17 -8 32 -12 32 -3 0 -131 -526 -285
-1168z m319 -62 c59 -2012 65 -2154 83 -2164 41 -22 101 -98 122 -153 58 -154
-28 -337 -182 -389 -67 -22 -177 -15 -234 14 -56 28 -129 112 -148 169 -46
136 2 270 130 363 20 15 23 56 105 1548 46 843 87 1525 90 1515 4 -10 19 -416
34 -903z"/>
</g>
</svg>
